# Made in Blockbench 4.12.6
mtllib blazing_bim.mtl

o unknown
o Blazing
v -1.1142 3.135 1.1142
v 0.2581 3.1363 -0.6232
v 1.9007 1.0971 -11.3155
v 4.6005 1.0765 -4.6005
v 4.9412 0.0004 -4.9412
v 2.1213 0.0004 -12.0208
v 11.3155 1.0971 -1.9007
v 12.0208 0.0004 -2.1213
v -4.9412 0.0004 4.9412
v -4.6005 1.0765 4.6005
v -11.3155 1.0971 1.9007
v -12.0208 0.0004 2.1213
v -2.1213 0.0004 12.0208
v -1.9007 1.0971 11.3155
v 1.5788 0.0004 -11.2208
v 4.3253 0.0004 -4.3253
v -4.3253 0.0004 -4.3253
v -1.5788 0.0004 -11.2208
v 11.2208 0.0004 -1.5788
v 11.2208 0.0004 1.5788
v 4.3253 0.0004 4.3253
v -4.3253 0.0004 4.3253
v -11.2208 0.0004 1.5788
v -11.2208 0.0004 -1.5788
v 0 0.0004 0
v 11.3155 1.0971 1.9007
v 4.6005 1.0765 4.6005
v 4.9412 0.0004 4.9412
v 12.0208 0.0004 2.1213
v 1.9007 1.0971 11.3155
v 2.1213 0.0004 12.0208
v 1.4142 3.1107 -1.4142
v 1.4142 3.1107 1.4142
v 3.1675 2.966 3.1675
v 3.1675 2.966 -3.1675
v -3.1675 2.966 -3.1675
v -1.4142 3.1107 -1.4142
v -1.4142 3.1107 1.4142
v -3.1675 2.966 3.1675
v -2.1213 0.0004 -12.0208
v -1.9007 1.0971 -11.3155
v 10.124 2.1939 1.5985
v 10.124 2.1939 -1.5985
v -10.124 2.1939 -1.5985
v -11.3155 1.0971 -1.9007
v -10.124 2.1939 1.5985
v -4.0622 2.1526 -4.0622
v -0.7981 2.5004 -8.7863
v -1.5985 2.1939 -10.124
v -8.7863 2.5004 -0.7981
v 4.0622 2.1526 -4.0622
v 1.5985 2.1939 -10.124
v 0.7981 2.5004 -8.7863
v 8.7863 2.5004 -0.7981
v -8.7863 2.5004 0.7981
v -4.0622 2.1526 4.0622
v -1.5985 2.1939 10.124
v -0.7981 2.5004 8.7863
v 4.0622 2.1526 4.0622
v 8.7863 2.5004 0.7981
v 0.7981 2.5004 8.7863
v 1.5985 2.1939 10.124
v -4.6005 1.0765 -4.6005
v -0.5803 1.9005 0.5803
v 0.5803 1.9005 0.5803
v 0.5803 1.9005 -0.5803
v -0.5803 1.9005 -0.5803
v -12.0208 0.0004 -2.1213
v -4.9412 0.0004 -4.9412
v -1.1142 3.135 -1.1142
v 1.1142 3.135 -1.1142
v 1.1142 3.135 1.1142
v -1.0283 2.2947 -1.0283
v 1.0283 2.2947 -1.0283
v -1.0283 2.2947 1.0283
v 1.0283 2.2947 1.0283
v 0 3.4157 0
v 0 3.3431 -0.3651
v -0.1397 3.3431 -0.3373
v -0.2581 3.3431 -0.2581
v -0.3373 3.3431 -0.1397
v -0.3651 3.3431 0
v -0.3373 3.3431 0.1397
v -0.2581 3.3431 0.2581
v -0.1397 3.3431 0.3373
v 0 3.3431 0.3651
v 0.1397 3.3431 0.3373
v 0.2581 3.3431 0.2581
v 0.3373 3.3431 0.1397
v 0.3651 3.3431 0
v 0.3373 3.3431 -0.1397
v 0.2581 3.3431 -0.2581
v 0.1397 3.3431 -0.3373
v -0.2581 3.1363 -0.6232
v 0 3.1363 -0.6746
v -0.477 3.1363 -0.477
v -0.6232 3.1363 -0.2581
v -0.6746 3.1363 0
v -0.6232 3.1363 0.2581
v -0.477 3.1363 0.477
v -0.2581 3.1363 0.6232
v 0 3.1363 0.6746
v 0.2581 3.1363 0.6232
v 0.477 3.1363 0.477
v 0.6232 3.1363 0.2581
v 0.6746 3.1363 0
v 0.6232 3.1363 -0.2581
v 0.477 3.1363 -0.477
v -0.3373 2.8268 -0.8143
v 0 2.8268 -0.8814
v -0.6232 2.8268 -0.6232
v -0.8143 2.8268 -0.3373
v -0.8814 2.8268 0
v -0.8143 2.8268 0.3373
v -0.6232 2.8268 0.6232
v -0.3373 2.8268 0.8143
v 0 2.8268 0.8814
v 0.3373 2.8268 0.8143
v 0.6232 2.8268 0.6232
v 0.8143 2.8268 0.3373
v 0.8814 2.8268 0
v 0.8143 2.8268 -0.3373
v 0.6232 2.8268 -0.6232
v 0.3373 2.8268 -0.8143
v -0.3651 2.4617 -0.8814
v 0 2.4617 -0.954
v -0.6746 2.4617 -0.6746
v -0.8814 2.4617 -0.3651
v -0.954 2.4617 0
v -0.8814 2.4617 0.3651
v -0.6746 2.4617 0.6746
v -0.3651 2.4617 0.8814
v 0 2.4617 0.954
v 0.3651 2.4617 0.8814
v 0.6746 2.4617 0.6746
v 0.8814 2.4617 0.3651
v 0.954 2.4617 0
v 0.8814 2.4617 -0.3651
v 0.6746 2.4617 -0.6746
v 0.3651 2.4617 -0.8814
v 0 1.8983 -0.954
v -0.3651 1.8983 -0.8814
v -0.6746 1.8983 -0.6746
v -0.8814 1.8983 -0.3651
v -0.954 1.8983 0
v -0.8814 1.8983 0.3651
v -0.6746 1.8983 0.6746
v -0.3651 1.8983 0.8814
v 0 1.8983 0.954
v 0.3651 1.8983 0.8814
v 0.6746 1.8983 0.6746
v 0.8814 1.8983 0.3651
v 0.954 1.8983 0
v 0.8814 1.8983 -0.3651
v 0.6746 1.8983 -0.6746
v 0.3651 1.8983 -0.8814
v 1.5788 0.0004 11.2208
v -1.5788 0.0004 11.2208
vt 0.40829346705484976 0.060282429517407254
vt 0.24892363442730386 0.16065151280475565
vt 0.24892363442730386 0.10526521709140146
vt 0.42064462908348454 0.00885937499999978
vt 0.24892363442730386 0.10526521709140146
vt 0.24892363442730386 0.16065151280475565
vt 0.08965340794515021 0.060282429517407254
vt 0.07730224591651542 0.00885937499999978
vt 0.24892363442730386 0.8999941579085984
vt 0.24892363442730386 0.8446078621952442
vt 0.40829346705484976 0.9450760265124912
vt 0.42064462908348454 0.9964
vt 0.24892363442730386 0.8999941579085984
vt 0.07730224591651542 0.9964
vt 0.08965340794515021 0.9450760265124912
vt 0.24892363442730386 0.8446078621952442
vt 0.5826 0.05015108070806318
vt 0.7509 0.2108353341521475
vt 0.5999 0.5458531249999999
vt 0.5275 0.17232881761547802
vt 0.7557828125 0.2894000000000001
vt 0.9239828125 0
vt 0.9790828125 0.22040000000000015
vt 0.9066828125 0.8934
vt 0.7508 0.8808709158478525
vt 0.5825 1.0415551692919367
vt 0.5275 0.9191554928079416
vt 0.5999 0.5458531249999999
vt 0.7508 0.5458531249999999
vt 0.9018 0.5459640947882901
vt 0.7508 0.8808709158478525
vt 0.02769838551119177 0.18403463586084068
vt 0.07789988278886872 0.5026792280149492
vt 0.050209374369832624 0.5026792280149492
vt 0.002 0.15956162147587027
vt 0.050209374369832624 0.5026792280149492
vt 0.07789988278886872 0.5026792280149492
vt 0.02769838551119177 0.8212247391391592
vt 0.002 0.8457968345540282
vt 0.24892363442730386 0.4087504116710142
vt 0.20200913994757005 0.5026792280149492
vt 0.1450344247832224 0.5026792280149492
vt 0.24892363442730386 0.2948072272875488
vt 0.3529124502167776 0.5026792280149492
vt 0.2959377350524299 0.5026792280149492
vt 0.24892363442730386 0.4087504116710142
vt 0.24892363442730386 0.2948072272875488
vt 0.1450344247832224 0.5026792280149492
vt 0.20200913994757005 0.5026792280149492
vt 0.24892363442730386 0.5966080443588843
vt 0.24892363442730386 0.710452147712451
vt 0.2959377350524299 0.5026792280149492
vt 0.3529124502167776 0.5026792280149492
vt 0.24892363442730386 0.710452147712451
vt 0.24892363442730386 0.5966080443588843
vt 0.49594687499999995 0.15956162147587027
vt 0.4702484894888082 0.18403463586084068
vt 0.40829346705484976 0.060282429517407254
vt 0.42064462908348454 0.00885937499999978
vt 0.05857629058277878 0.22059553589344827
vt 0.02769838551119177 0.18403463586084068
vt 0.08965340794515021 0.060282429517407254
vt 0.10788133255192577 0.12200991114427595
vt 0.43937058441722115 0.7847629201364502
vt 0.4702484894888082 0.8212247391391592
vt 0.40829346705484976 0.9450760265124912
vt 0.39006554244807423 0.8833485448856225
vt 0.002 0.8457968345540282
vt 0.02769838551119177 0.8212247391391592
vt 0.08965340794515021 0.9450760265124912
vt 0.07730224591651542 0.9964
vt 0.3883722379764065 0.5026792280149492
vt 0.3529124502167776 0.5026792280149492
vt 0.4055044949838677 0.24100622805257343
vt 0.43937058441722115 0.22059553589344827
vt 0.43937058441722115 0.7847629201364502
vt 0.4055044949838677 0.7642531469474265
vt 0.3529124502167776 0.5026792280149492
vt 0.3883722379764065 0.5026792280149492
vt 0.24892363442730386 0.2948072272875488
vt 0.24892363442730386 0.22396429091000292
vt 0.39006554244807423 0.12200991114427595
vt 0.3798061094726759 0.18978133559496335
vt 0.11814076552732404 0.18978133559496335
vt 0.10788133255192577 0.12200991114427595
vt 0.24892363442730386 0.22396429091000292
vt 0.24892363442730386 0.2948072272875488
vt 0.3798061094726759 0.8155771204349352
vt 0.39006554244807423 0.8833485448856225
vt 0.24892363442730386 0.7813941651198957
vt 0.24892363442730386 0.710452147712451
vt 0.24892363442730386 0.710452147712451
vt 0.24892363442730386 0.7813941651198957
vt 0.10788133255192577 0.8833485448856225
vt 0.11814076552732404 0.8155771204349352
vt 0.1450344247832224 0.5026792280149492
vt 0.10957463702359346 0.5026792280149492
vt 0.05857629058277878 0.22059553589344827
vt 0.09244238001613228 0.24110530908247207
vt 0.09244238001613228 0.7642531469474265
vt 0.05857629058277878 0.7847629201364502
vt 0.10957463702359346 0.5026792280149492
vt 0.1450344247832224 0.5026792280149492
vt 0.43937058441722115 0.22059553589344827
vt 0.4702484894888082 0.18403463586084068
vt 0.4200469922111313 0.5026792280149492
vt 0.3883722379764065 0.5026792280149492
vt 0.4200469922111313 0.5026792280149492
vt 0.4702484894888082 0.8212247391391592
vt 0.43937058441722115 0.7847629201364502
vt 0.3883722379764065 0.5026792280149492
vt 0.3798061094726759 0.18978133559496335
vt 0.39006554244807423 0.12200991114427595
vt 0.43937058441722115 0.22059553589344827
vt 0.4055044949838677 0.24100622805257343
vt 0.09244238001613228 0.24110530908247207
vt 0.05857629058277878 0.22059553589344827
vt 0.10788133255192577 0.12200991114427595
vt 0.11814076552732404 0.18978133559496335
vt 0.4055044949838677 0.7642531469474265
vt 0.43937058441722115 0.7847629201364502
vt 0.39006554244807423 0.8833485448856225
vt 0.3798061094726759 0.8155771204349352
vt 0.11814076552732404 0.8155771204349352
vt 0.10788133255192577 0.8833485448856225
vt 0.05857629058277878 0.7847629201364502
vt 0.09244238001613228 0.7642531469474265
vt 0.24892363442730386 0.5340879144928261
vt 0.2332854696007259 0.5026792280149492
vt 0.24892363442730386 0.47127054153707226
vt 0.264661405399274 0.5026792280149492
vt 0.4055044949838677 0.7642531469474265
vt 0.3798061094726759 0.8155771204349352
vt 0.24892363442730386 0.710452147712451
vt 0.3529124502167776 0.5026792280149492
vt 0.24892363442730386 0.710452147712451
vt 0.11814076552732404 0.8155771204349352
vt 0.09244238001613228 0.7642531469474265
vt 0.1450344247832224 0.5026792280149492
vt 0.09244238001613228 0.24110530908247207
vt 0.11814076552732404 0.18978133559496335
vt 0.24892363442730386 0.2948072272875488
vt 0.1450344247832224 0.5026792280149492
vt 0.24892363442730386 0.2948072272875488
vt 0.3798061094726759 0.18978133559496335
vt 0.4055044949838677 0.24100622805257343
vt 0.3529124502167776 0.5026792280149492
vt 0.39006554244807423 0.12200991114427595
vt 0.24892363442730386 0.22396429091000292
vt 0.24892363442730386 0.16065151280475565
vt 0.40829346705484976 0.060282429517407254
vt 0.24892363442730386 0.16065151280475565
vt 0.24892363442730386 0.22396429091000292
vt 0.10788133255192577 0.12200991114427595
vt 0.08965340794515021 0.060282429517407254
vt 0.24892363442730386 0.8446078621952442
vt 0.24892363442730386 0.7813941651198957
vt 0.39006554244807423 0.8833485448856225
vt 0.40829346705484976 0.9450760265124912
vt 0.10788133255192577 0.8833485448856225
vt 0.24892363442730386 0.7813941651198957
vt 0.24892363442730386 0.8446078621952442
vt 0.08965340794515021 0.9450760265124912
vt 0.05857629058277878 0.22059553589344827
vt 0.10957463702359346 0.5026792280149492
vt 0.07789988278886872 0.5026792280149492
vt 0.02769838551119177 0.18403463586084068
vt 0.07789988278886872 0.5026792280149492
vt 0.10957463702359346 0.5026792280149492
vt 0.05857629058277878 0.7847629201364502
vt 0.02769838551119177 0.8212247391391592
vt 0.43937058441722115 0.22059553589344827
vt 0.39006554244807423 0.12200991114427595
vt 0.40829346705484976 0.060282429517407254
vt 0.4702484894888082 0.18403463586084068
vt 0.002 0.15956162147587027
vt 0.07730224591651542 0.00885937499999978
vt 0.08965340794515021 0.060282429517407254
vt 0.02769838551119177 0.18403463586084068
vt 0.49594687499999995 0.8457968345540282
vt 0.42064462908348454 0.9964
vt 0.40829346705484976 0.9450760265124912
vt 0.4702484894888082 0.8212247391391592
vt 0.05857629058277878 0.7847629201364502
vt 0.10788133255192577 0.8833485448856225
vt 0.08965340794515021 0.9450760265124912
vt 0.02769838551119177 0.8212247391391592
vt 0.4702484894888082 0.18403463586084068
vt 0.49594687499999995 0.15956162147587027
vt 0.4477375006301673 0.5026792280149492
vt 0.4200469922111313 0.5026792280149492
vt 0.4477375006301673 0.5026792280149492
vt 0.49594687499999995 0.8457968345540282
vt 0.4702484894888082 0.8212247391391592
vt 0.4200469922111313 0.5026792280149492
vt 0.24892363442730386 0.4087504116710142
vt 0.2959377350524299 0.5026792280149492
vt 0.28986176018350474 0.5026792280149492
vt 0.24892363442730386 0.4208382973186515
vt 0.2959377350524299 0.5026792280149492
vt 0.24892363442730386 0.5966080443588843
vt 0.24892363442730386 0.5844210776813484
vt 0.28986176018350474 0.5026792280149492
vt 0.24892363442730386 0.5966080443588843
vt 0.20200913994757005 0.5026792280149492
vt 0.20808511481649525 0.5026792280149492
vt 0.24892363442730386 0.5844210776813484
vt 0.20200913994757005 0.5026792280149492
vt 0.24892363442730386 0.4087504116710142
vt 0.24892363442730386 0.4208382973186515
vt 0.20808511481649525 0.5026792280149492
vt 0.24892363442730386 0.4208382973186515
vt 0.28986176018350474 0.5026792280149492
vt 0.2806979948074208 0.5026792280149492
vt 0.24892363442730386 0.4392673688798032
vt 0.28986176018350474 0.5026792280149492
vt 0.24892363442730386 0.5844210776813484
vt 0.24892363442730386 0.5659920061201966
vt 0.2806979948074208 0.5026792280149492
vt 0.24892363442730386 0.5844210776813484
vt 0.20808511481649525 0.5026792280149492
vt 0.21724888019257912 0.5026792280149492
vt 0.24892363442730386 0.5659920061201966
vt 0.20808511481649525 0.5026792280149492
vt 0.24892363442730386 0.4208382973186515
vt 0.24892363442730386 0.4392673688798032
vt 0.21724888019257912 0.5026792280149492
vt 0.5127878745821395 0.496246875
vt 0.510212402996657 0.4827121227423954
vt 0.5127121254178606 0.48154962868345996
vt 0.5127878745821395 0.496246875
vt 0.5127121254178606 0.48154962868345996
vt 0.5152875970033429 0.48262908745247146
vt 0.5127878745821395 0.496246875
vt 0.5152875970033429 0.48262908745247146
vt 0.5174085736031518 0.4858674637595056
vt 0.5127878745821395 0.496246875
vt 0.5174085736031518 0.4858674637595056
vt 0.5189235568887297 0.49060047528517103
vt 0.5127878745821395 0.496246875
vt 0.5189235568887297 0.49060047528517103
vt 0.519378051874403 0.49616383971007605
vt 0.5127878745821395 0.496246875
vt 0.519378051874403 0.49616383971007594
vt 0.5189235568887297 0.5018102394249049
vt 0.5127878745821395 0.496246875
vt 0.5189235568887297 0.5018102394249049
vt 0.5174843227674307 0.5065432509505703
vt 0.5127878745821395 0.496246875
vt 0.5174843227674307 0.5065432509505703
vt 0.5153633461676218 0.5097816272576045
vt 0.5127878745821395 0.496246875
vt 0.5153633461676218 0.5097816272576045
vt 0.5127878745821395 0.5109441213165399
vt 0.5127878745821395 0.496246875
vt 0.5127878745821395 0.5109441213165399
vt 0.510212402996657 0.5097816272576045
vt 0.5127878745821395 0.496246875
vt 0.510212402996657 0.5097816272576045
vt 0.5080914263968481 0.5066262862404942
vt 0.5127878745821395 0.496246875
vt 0.5080914263968481 0.5066262862404942
vt 0.5065764431112703 0.5018932747148288
vt 0.5127878745821395 0.496246875
vt 0.5065764431112703 0.5018932747148288
vt 0.506121948125597 0.4963299102899239
vt 0.5127878745821395 0.496246875
vt 0.506121948125597 0.4963299102899239
vt 0.5065764431112703 0.49068351057509507
vt 0.5127878745821395 0.496246875
vt 0.5065764431112703 0.49068351057509507
vt 0.5080156772325692 0.48595049904942966
vt 0.5127878745821395 0.496246875
vt 0.5080156772325692 0.48595049904942966
vt 0.510212402996657 0.4827121227423954
vt 0.5127121254178606 0.46593899417775675
vt 0.5127121254178606 0.48154962868345996
vt 0.510212402996657 0.4827121227423954
vt 0.5074096839183382 0.4682639822956274
vt 0.5179388177531041 0.46818094700570345
vt 0.5152875970033429 0.48262908745247146
vt 0.5127121254178606 0.48154962868345996
vt 0.5127121254178606 0.46593899417775675
vt 0.5224837676098376 0.4747407349096958
vt 0.5174085736031518 0.4858674637595056
vt 0.5152875970033429 0.48262908745247146
vt 0.5179388177531041 0.46818094700570345
vt 0.5254379850167143 0.48453889912072223
vt 0.5189235568887297 0.49060047528517103
vt 0.5174085736031518 0.4858674637595056
vt 0.5224837676098376 0.4747407349096958
vt 0.5264984733166189 0.49616383971007594
vt 0.519378051874403 0.49616383971007594
vt 0.5189235568887297 0.49060047528517103
vt 0.5254379850167143 0.48453889912072223
vt 0.5255137341809933 0.5077057450095057
vt 0.5189235568887297 0.5018102394249049
vt 0.519378051874403 0.49616383971007594
vt 0.5264984733166189 0.49616383971007594
vt 0.5225595167741165 0.5175869445104562
vt 0.5174843227674307 0.5065432509505703
vt 0.5189235568887297 0.5018102394249049
vt 0.5255137341809933 0.5077057450095057
vt 0.5180903160816619 0.5242297677043726
vt 0.5153633461676218 0.5097816272576045
vt 0.5174843227674307 0.5065432509505703
vt 0.5225595167741165 0.5175869445104562
vt 0.5127878745821395 0.5265547558222432
vt 0.5127878745821395 0.5109441213165399
vt 0.5153633461676218 0.5097816272576045
vt 0.5180903160816619 0.5242297677043726
vt 0.507561182246896 0.5243128029942965
vt 0.510212402996657 0.5097816272576045
vt 0.5127878745821395 0.5109441213165399
vt 0.5127878745821395 0.5265547558222432
vt 0.5030919815544412 0.5177530150903041
vt 0.5080914263968481 0.5066262862404942
vt 0.510212402996657 0.5097816272576045
vt 0.507561182246896 0.5243128029942965
vt 0.5000620149832856 0.5079548508792775
vt 0.5065764431112703 0.5018932747148288
vt 0.5080914263968481 0.5066262862404942
vt 0.5030919815544412 0.5177530150903041
vt 0.49900152668338105 0.4963299102899239
vt 0.506121948125597 0.4963299102899239
vt 0.5065764431112703 0.5018932747148288
vt 0.5000620149832856 0.5079548508792775
vt 0.4999862658190067 0.4847049697005703
vt 0.5065764431112703 0.49068351057509507
vt 0.506121948125597 0.4963299102899239
vt 0.49900152668338105 0.4963299102899239
vt 0.5030162323901624 0.47490680548954367
vt 0.5080156772325692 0.48595049904942966
vt 0.5065764431112703 0.49068351057509496
vt 0.4999862658190067 0.4847049697005703
vt 0.5074096839183382 0.4682639822956274
vt 0.510212402996657 0.4827121227423954
vt 0.5080156772325692 0.48595049904942966
vt 0.5030162323901624 0.4749068054895438
vt 0.5127121254178606 0.4508265714115969
vt 0.5127121254178606 0.46593899417775675
vt 0.5074096839183382 0.4682639822956274
vt 0.5048342123328557 0.4543970888783271
vt 0.5205900385028653 0.454231018298479
vt 0.5179388177531041 0.46818094700570345
vt 0.5127121254178606 0.46593899417775675
vt 0.5127121254178606 0.4508265714115969
vt 0.5272559649594079 0.46402918250950553
vt 0.5224837676098376 0.4747407349096958
vt 0.5179388177531041 0.46818094700570345
vt 0.5205900385028653 0.454231018298479
vt 0.5317251656518625 0.47872642882604555
vt 0.5254379850167143 0.48453889912072223
vt 0.5224837676098376 0.4747407349096957
vt 0.5272559649594079 0.46402918250950553
vt 0.5333158981017192 0.4960808044201519
vt 0.5264984733166189 0.49616383971007594
vt 0.5254379850167143 0.48453889912072223
vt 0.5317251656518625 0.47872642882604555
vt 0.5318009148161414 0.5134351800142585
vt 0.5255137341809933 0.5077057450095057
vt 0.5264984733166189 0.49616383971007594
vt 0.5333158981017192 0.496080804420152
vt 0.5274074632879656 0.5282154616207224
vt 0.5225595167741165 0.5175869445104562
vt 0.5255137341809933 0.5077057450095057
vt 0.5318009148161414 0.5134351800142585
vt 0.5207415368314231 0.538096661121673
vt 0.5180903160816619 0.5242297677043726
vt 0.5225595167741165 0.5175869445104562
vt 0.5274074632879656 0.5282154616207224
vt 0.5128636237464184 0.5415841432984789
vt 0.5127878745821395 0.5265547558222432
vt 0.5180903160816619 0.5242297677043726
vt 0.5207415368314231 0.538096661121673
vt 0.5049099614971346 0.5382627317015208
vt 0.507561182246896 0.5243128029942965
vt 0.5127878745821395 0.5265547558222432
vt 0.5128636237464184 0.5415841432984789
vt 0.4982440350405921 0.5284645674904942
vt 0.5030919815544412 0.5177530150903041
vt 0.507561182246896 0.5243128029942965
vt 0.5049099614971346 0.5382627317015208
vt 0.49377483434813757 0.5137673211739543
vt 0.5000620149832856 0.5079548508792775
vt 0.5030919815544412 0.5177530150903041
vt 0.4982440350405921 0.5284645674904942
vt 0.49218410189828077 0.49641294557984794
vt 0.49900152668338105 0.4963299102899239
vt 0.5000620149832856 0.5079548508792775
vt 0.49377483434813757 0.5137673211739543
vt 0.49369908518385863 0.47905856998574137
vt 0.4999862658190067 0.4847049697005703
vt 0.49900152668338105 0.4963299102899239
vt 0.49218410189828077 0.49641294557984794
vt 0.49816828587631323 0.4642782883792774
vt 0.5030162323901624 0.47490680548954356
vt 0.4999862658190067 0.4847049697005703
vt 0.49369908518385863 0.47905856998574126
vt 0.5048342123328557 0.45439708887832697
vt 0.5074096839183382 0.4682639822956274
vt 0.5030162323901624 0.47490680548954367
vt 0.49816828587631323 0.4642782883792774
vt 0.5126363762535816 0.43579718393536127
vt 0.5127121254178606 0.450826571411597
vt 0.5048342123328557 0.45439708887832697
vt 0.5021829915830945 0.4404471601711025
vt 0.5231655100883477 0.44028108959125467
vt 0.5205900385028653 0.454231018298479
vt 0.5127121254178606 0.4508265714115969
vt 0.5126363762535816 0.43579718393536115
vt 0.532103911473257 0.4533176301093156
vt 0.5272559649594079 0.46402918250950553
vt 0.5205900385028653 0.454231018298479
vt 0.5231655100883477 0.44028108959125467
vt 0.5380880954512894 0.47291395853136875
vt 0.5317251656518625 0.47872642882604555
vt 0.5272559649594079 0.46402918250950553
vt 0.532103911473257 0.4533176301093156
vt 0.5402090720510985 0.4959977691302281
vt 0.5333158981017192 0.496080804420152
vt 0.5317251656518625 0.47872642882604555
vt 0.5380880954512894 0.47291395853136875
vt 0.5381638446155683 0.5191646150190112
vt 0.5318009148161414 0.5134351800142585
vt 0.5333158981017192 0.496080804420152
vt 0.5402090720510985 0.4959977691302281
vt 0.5322554098018146 0.5388439787309885
vt 0.5274074632879656 0.5282154616207224
vt 0.5318009148161414 0.5134351800142585
vt 0.5381638446155683 0.5191646150190112
vt 0.5233170084169054 0.5519635545389734
vt 0.5207415368314231 0.538096661121673
vt 0.5274074632879656 0.5282154616207224
vt 0.5322554098018146 0.5388439787309885
vt 0.5128636237464184 0.5566965660646387
vt 0.5128636237464184 0.5415841432984789
vt 0.5207415368314231 0.538096661121673
vt 0.5233170084169054 0.5519635545389734
vt 0.5023344899116523 0.5522126604087452
vt 0.5049099614971346 0.5382627317015208
vt 0.5128636237464184 0.5415841432984789
vt 0.5128636237464184 0.5566965660646387
vt 0.4933960885267431 0.5391761198906844
vt 0.4982440350405921 0.5284645674904942
vt 0.5049099614971346 0.5382627317015208
vt 0.5023344899116523 0.5522126604087452
vt 0.4874119045487106 0.5195797914686311
vt 0.49377483434813757 0.5137673211739543
vt 0.4982440350405921 0.5284645674904942
vt 0.4933960885267431 0.5391761198906844
vt 0.4852909279489016 0.49649598086977187
vt 0.49218410189828077 0.49641294557984794
vt 0.49377483434813757 0.5137673211739543
vt 0.4874119045487106 0.5195797914686311
vt 0.4873361553844317 0.4733291349809885
vt 0.49369908518385863 0.47905856998574126
vt 0.49218410189828077 0.49641294557984794
vt 0.4852909279489016 0.49649598086977187
vt 0.4932445901981853 0.4536497712690113
vt 0.49816828587631323 0.4642782883792773
vt 0.49369908518385863 0.47905856998574126
vt 0.4873361553844317 0.4733291349809885
vt 0.5021829915830945 0.4404471601711025
vt 0.5048342123328557 0.45439708887832697
vt 0.49816828587631323 0.4642782883792774
vt 0.4932445901981853 0.4536497712690113
vt 0.5126363762535816 0.43579718393536104
vt 0.5021829915830945 0.4404471601711025
vt 0.49741079423352436 0.41561960848384016
vt 0.5126363762535816 0.40889374999999983
vt 0.5231655100883477 0.44028108959125467
vt 0.5126363762535816 0.43579718393536115
vt 0.5126363762535816 0.40889374999999983
vt 0.5277862091093601 0.4153705026140684
vt 0.532103911473257 0.4533176301093156
vt 0.5231655100883477 0.44028108959125467
vt 0.5277862091093601 0.4153705026140684
vt 0.5406635670367717 0.434219513426806
vt 0.5380880954512894 0.47291395853136875
vt 0.532103911473257 0.4533176301093156
vt 0.5406635670367717 0.434219513426806
vt 0.5493747209288443 0.46245151200095047
vt 0.5402090720510985 0.4959977691302281
vt 0.5380880954512894 0.47291395853136886
vt 0.5493747209288443 0.46245151200095047
vt 0.5524046875 0.49591473384030416
vt 0.5381638446155683 0.5191646150190112
vt 0.5402090720510985 0.4959977691302281
vt 0.5524046875 0.49591473384030405
vt 0.5494504700931233 0.5293779556796577
vt 0.5322554098018146 0.5388439787309885
vt 0.5381638446155683 0.5191646150190112
vt 0.5494504700931233 0.5293779556796577
vt 0.5408908145296084 0.5577760248336502
vt 0.5233170084169054 0.5519635545389734
vt 0.5322554098018146 0.5388439787309885
vt 0.5408908145296084 0.5577760248336502
vt 0.5280892057664757 0.5768741415161596
vt 0.5128636237464184 0.5566965660646387
vt 0.5233170084169054 0.5519635545389734
vt 0.5280892057664757 0.5768741415161596
vt 0.5129393729106972 0.5835999999999999
vt 0.5023344899116523 0.5522126604087452
vt 0.5128636237464184 0.5566965660646387
vt 0.5129393729106972 0.5835999999999999
vt 0.49771379089063994 0.5771232473859316
vt 0.4933960885267431 0.5391761198906844
vt 0.5023344899116523 0.5522126604087452
vt 0.49771379089063994 0.5771232473859316
vt 0.48483643296322826 0.5582742365731939
vt 0.4874119045487106 0.5195797914686311
vt 0.4933960885267431 0.5391761198906844
vt 0.48483643296322826 0.5582742365731939
vt 0.4762010282354346 0.5299592027091253
vt 0.4852909279489016 0.49649598086977187
vt 0.4874119045487106 0.5195797914686311
vt 0.4762010282354346 0.5299592027091253
vt 0.4730953125 0.4965790161596958
vt 0.4873361553844317 0.4733291349809885
vt 0.4852909279489016 0.49649598086977187
vt 0.4730953125 0.4965790161596958
vt 0.47604952990687677 0.4631157943203421
vt 0.4932445901981853 0.4536497712690113
vt 0.4873361553844317 0.4733291349809885
vt 0.47604952990687677 0.4631157943203421
vt 0.4846091854703916 0.43471772516634966
vt 0.5021829915830945 0.4404471601711025
vt 0.4932445901981853 0.4536497712690113
vt 0.4846091854703916 0.43471772516634977
vt 0.49741079423352436 0.41561960848384016
vt 0.24892363442730386 0.47127054153707226
vt 0.24892363442730386 0.4392673688798032
vt 0.2806979948074208 0.5026792280149492
vt 0.264661405399274 0.5026792280149492
vt 0.264661405399274 0.5026792280149492
vt 0.2806979948074208 0.5026792280149492
vt 0.24892363442730386 0.5659920061201966
vt 0.24892363442730386 0.5340879144928261
vt 0.24892363442730386 0.5340879144928261
vt 0.24892363442730386 0.5659920061201966
vt 0.21724888019257912 0.5026792280149492
vt 0.2332854696007259 0.5026792280149492
vt 0.2332854696007259 0.5026792280149492
vt 0.21724888019257912 0.5026792280149492
vt 0.24892363442730386 0.4392673688798032
vt 0.24892363442730386 0.47127054153707226
vt 0.9741 0.9193774323845219
vt 0.919 1.0416661390802269
vt 0.7508 0.8808709158478525
vt 0.9018 0.5459640947882901
vt 0.9018 0.5459640947882901
vt 0.7508 0.5458531249999999
vt 0.7509 0.2108353341521475
vt 0.7509 0.2108353341521475
vt 0.7508 0.5458531249999999
vt 0.5999 0.5458531249999999
vt 0.5999 0.5458531249999999
vt 0.7508 0.5458531249999999
vt 0.7508 0.8808709158478525
vt 0.5781 -0.0018937500000000274
vt 0.7509 0.16311832518739877
vt 0.7509 0.2108353341521475
vt 0.5826 0.05015108070806318
vt 0.7509 0.16311832518739877
vt 0.9236 -0.0017827802117098557
vt 0.9191 0.05026205049635335
vt 0.7509 0.2108353341521475
vt 0.9236 -0.0017827802117098557
vt 0.9976 0.16256347624594825
vt 0.9742 0.17255075719205848
vt 0.9191 0.05026205049635335
vt 0.9976 0.16256347624594825
vt 0.9233 0.5459640947882901
vt 0.9018 0.5459640947882901
vt 0.9742 0.17255075719205848
vt 0.9233 0.5459640947882901
vt 0.9976 0.929364713330632
vt 0.9741 0.9193774323845219
vt 0.9018 0.5459640947882901
vt 0.9976 0.929364713330632
vt 0.9235 1.0936
vt 0.919 1.0416661390802269
vt 0.9741 0.9193774323845219
vt 0.9235 1.0936
vt 0.7508 0.9285879248126013
vt 0.7508 0.8808709158478525
vt 0.919 1.0416661390802269
vt 0.7508 0.9285879248126013
vt 0.578 1.0934890302117097
vt 0.5825 1.0415551692919367
vt 0.7508 0.8808709158478525
vt 0.578 1.0934890302117097
vt 0.504 0.9291427737540519
vt 0.5275 0.9191554928079416
vt 0.5825 1.0415551692919367
vt 0.504 0.9291427737540519
vt 0.5784 0.5458531249999999
vt 0.5999 0.5458531249999999
vt 0.5275 0.9191554928079416
vt 0.5784 0.5458531249999999
vt 0.5041 0.16245250645765807
vt 0.5275 0.17232881761547802
vt 0.5999 0.5458531249999999
vt 0.5041 0.16245250645765807
vt 0.5781 -0.0018937500000000274
vt 0.5826 0.05015108070806318
vt 0.5275 0.17232881761547802
vn 0.8583704632381988 0.3806604315894225 -0.34394444851224826
vn 0.3439444485122483 0.3806604315894224 -0.858370463238199
vn -0.3439444485122483 0.3806604315894224 0.858370463238199
vn -0.8550491878837871 0.39102145975381547 0.3405776039484564
vn 0 -1 0
vn 0 -1 0
vn 0 -1 0
vn 0 -1 0
vn 0.34394444851224826 0.3806604315894225 0.8583704632381988
vn 0.858370463238199 0.3806604315894224 0.3439444485122483
vn 0.08225044873301045 0.9966116915244465 0
vn 0 0.9966116915244465 -0.08225044873301046
vn 0 0.9966116915244465 0.08225044873301046
vn -0.08225044873301048 0.9966116915244466 0
vn 0 0.5409087516710656 -0.8410812816640553
vn 0.6772638502774256 0.7357402239292051 0
vn -0.6772638502774256 0.7357402239292051 0
vn 0 0.5409087516710656 0.8410812816640553
vn -0.483428423246823 0.831796694731724 -0.2727841971787772
vn -0.14047212820957175 0.9800608628017238 -0.1405285963802899
vn 0.5334154521070268 0.819057872120532 -0.21121590274134808
vn 0.0859577738410419 0.9699173068429723 -0.2277535488258484
vn -0.0859577738410419 0.9699173068429723 0.2277535488258484
vn -0.5334154521070268 0.819057872120532 0.21121590274134808
vn 0.21121590274134808 0.819057872120532 0.5334154521070268
vn 0.2277535488258484 0.9699173068429723 0.0859577738410419
vn -0.7752390899407487 0.5503672254800669 -0.3100004363629403
vn -0.3100004363629402 0.550367225480067 -0.7752390899407484
vn 0 0.9747412420741952 -0.22333721364711118
vn 0.22333721364711118 0.9747412420741952 0
vn -0.22333721364711118 0.9747412420741952 0
vn 0 0.9747412420741952 0.22333721364711118
vn 0 1 0
vn -0.08258162808391314 0.9965843038614497 0
vn 0 0.9965843038614497 0.08258162808391314
vn 0.08258162808391314 0.9965843038614497 0
vn 0 0.9965843038614497 -0.08258162808391314
vn 0.7778062966966762 0.5453606883507093 -0.3124085216837766
vn 0.31240852168377653 0.5453606883507093 -0.7778062966966763
vn -0.31240852168377653 0.5453606883507093 0.7778062966966763
vn -0.7778062966966762 0.5453606883507093 0.3124085216837766
vn 0.3124085216837766 0.5453606883507093 0.7778062966966762
vn 0.7778062966966763 0.5453606883507093 0.31240852168377653
vn 0 0.7357402239292051 -0.6772638502774256
vn 0.8410812816640553 0.5409087516710656 0
vn -0.8410812816640553 0.5409087516710656 0
vn 0 0.7357402239292051 0.6772638502774256
vn -0.8550491878837871 0.3910214597538157 -0.3405776039484564
vn -0.3405776039484563 0.39102145975381536 -0.8550491878837869
vn 0 0.9967355547648561 -0.08073557993595262
vn -0.08073557993595262 0.9967355547648561 0
vn 0 0.9967355547648561 0.08073557993595262
vn 0.08073557993595262 0.9967355547648561 0
vn 0 0.10169541651412964 0.994815582035192
vn 0.994815582035192 0.10169541651412964 0
vn 0 0.10169541651412964 -0.994815582035192
vn -0.994815582035192 0.10169541651412964 0
vn -0.0387815793889866 0.9800592100690628 -0.1948844115338646
vn -0.11049354252796312 0.9800540781975986 -0.1651822655973591
vn -0.1651822655973591 0.9800540781975986 -0.11049354252796312
vn -0.1948844115338646 0.9800592100690628 -0.0387815793889866
vn -0.1948844115338646 0.9800592100690628 0.0387815793889866
vn -0.1651822655973591 0.9800540781975986 0.11049354252796312
vn -0.11049354252796312 0.9800540781975986 0.1651822655973591
vn -0.0387815793889866 0.9800592100690628 0.1948844115338646
vn 0.0387815793889866 0.9800592100690628 0.1948844115338646
vn 0.11049354252796312 0.9800540781975986 0.1651822655973591
vn 0.1651822655973591 0.9800540781975986 0.11049354252796312
vn 0.1948844115338646 0.9800592100690628 0.0387815793889866
vn 0.1948844115338646 0.9800592100690628 -0.0387815793889866
vn 0.1651822655973591 0.9800540781975986 -0.11049354252796312
vn 0.11049354252796312 0.9800540781975986 -0.1651822655973591
vn 0.0387815793889866 0.9800592100690628 -0.1948844115338646
vn -0.10989665534325864 0.8264031437659014 -0.5522504586853685
vn -0.3129681468379886 0.8265271503077383 -0.4678715730507303
vn -0.4680696729222048 0.8263647852219376 -0.3131006595898533
vn -0.5522033520047517 0.8264358677247117 -0.1098872812149757
vn -0.5522504586853685 0.8264031437659014 0.10989665534325864
vn -0.4678715730507303 0.8265271503077383 0.3129681468379886
vn -0.3131006595898533 0.8263647852219377 0.46806967292220486
vn -0.1098872812149757 0.8264358677247117 0.5522033520047517
vn 0.10989665534325864 0.8264031437659014 0.5522504586853685
vn 0.3129681468379886 0.8265271503077383 0.4678715730507303
vn 0.4680696729222048 0.8263647852219376 0.3131006595898533
vn 0.5522033520047517 0.8264358677247117 0.1098872812149757
vn 0.5522504586853685 0.8264031437659014 -0.10989665534325864
vn 0.4678715730507303 0.8265271503077383 -0.3129681468379886
vn 0.3131006595898533 0.8263647852219377 -0.46806967292220486
vn 0.1098872812149757 0.8264358677247117 -0.5522033520047517
vn -0.16334388836508423 0.5482389239044243 -0.8202151281523001
vn -0.46457082753136414 0.5480284624610698 -0.6955851856813654
vn -0.6954552047754006 0.5482669584502647 -0.4644840152497194
vn -0.8203015140905076 0.5481045334860001 -0.16336109191883808
vn -0.8202151281523001 0.5482389239044243 0.16334388836508423
vn -0.6955851856813653 0.5480284624610697 0.4645708275313641
vn -0.4644840152497194 0.5482669584502647 0.6954552047754006
vn -0.16336109191883808 0.5481045334860001 0.8203015140905076
vn 0.16334388836508423 0.5482389239044243 0.8202151281523001
vn 0.46457082753136414 0.5480284624610698 0.6955851856813654
vn 0.6954552047754006 0.5482669584502647 0.4644840152497194
vn 0.8203015140905076 0.5481045334860001 0.16336109191883808
vn 0.8202151281523001 0.5482389239044243 -0.16334388836508423
vn 0.6955851856813653 0.5480284624610697 -0.4645708275313641
vn 0.4644840152497194 0.5482669584502647 -0.6954552047754006
vn 0.16336109191883808 0.5481045334860001 -0.8203015140905076
vn -0.19149859218172585 0.19149859218172585 -0.9626300319358598
vn -0.5454045349730811 0.1916583402031745 -0.8159662823066658
vn -0.8159923479753477 0.19149771835769577 -0.5454219576708254
vn -0.9626447703632439 0.1914215566375555 -0.19150152413689184
vn -0.9626300319358598 0.19149859218172585 0.19149859218172585
vn -0.8159662823066658 0.1916583402031745 0.5454045349730811
vn -0.5454219576708255 0.19149771835769583 0.8159923479753479
vn -0.19150152413689184 0.1914215566375555 0.9626447703632439
vn 0.19149859218172585 0.19149859218172585 0.9626300319358598
vn 0.5454045349730811 0.1916583402031745 0.8159662823066658
vn 0.8159923479753477 0.19149771835769577 0.5454219576708254
vn 0.9626447703632439 0.1914215566375555 0.19150152413689184
vn 0.9626300319358598 0.19149859218172585 -0.19149859218172585
vn 0.8159662823066658 0.1916583402031745 -0.5454045349730811
vn 0.5454219576708255 0.19149771835769583 -0.8159923479753479
vn 0.19150152413689184 0.1914215566375555 -0.9626447703632439
vn -0.19503113119518467 0 -0.9807970523328089
vn -0.5555678400201284 0 -0.8314712112486933
vn -0.8314712112486933 0 -0.5555678400201284
vn -0.9807970523328089 0 -0.19503113119518467
vn -0.9807970523328089 0 0.19503113119518467
vn -0.8314712112486933 0 0.5555678400201284
vn -0.5555678400201284 0 0.8314712112486933
vn -0.19503113119518467 0 0.9807970523328089
vn 0.19503113119518467 0 0.9807970523328089
vn 0.5555678400201284 0 0.8314712112486933
vn 0.8314712112486933 0 0.5555678400201284
vn 0.9807970523328089 0 0.19503113119518467
vn 0.9807970523328089 0 -0.19503113119518467
vn 0.8314712112486933 0 -0.5555678400201284
vn 0.5555678400201284 0 -0.8314712112486933
vn 0.19503113119518467 0 -0.9807970523328089
vn 0 0.7507467594604312 0.6605901173645136
vn 0.6605901173645136 0.7507467594604312 0
vn 0 0.7507467594604312 -0.6605901173645136
vn -0.6605901173645136 0.7507467594604312 0
vn 0 -1 0
vn 0 -1 0
vn 0 -1 0
vn 0 -1 0
vn 0 -1 0
vn 0 -1 0
vn 0 -1 0
vn 0 -1 0
vn 0 -1 0
vn 0 -1 0
vn 0 -1 0
vn 0 -1 0
vn 0 -1 0
vn 0 -1 0
vn 0 -1 0
vn 0 -1 0
usemtl m_cd8b82f5-b55f-1c4f-77b7-6f5587935e7c
f 3/1/1 4/2/1 5/3/1 6/4/1
f 5/5/2 4/6/2 7/7/2 8/8/2
f 9/9/3 10/10/3 11/11/3 12/12/3
f 9/13/4 13/14/4 14/15/4 10/16/4
f 15/17/5 16/18/5 17/19/5 18/20/5
f 16/21/6 19/22/6 20/23/6 21/24/6
f 22/25/7 23/26/7 24/27/7 17/28/7
f 25/29/8 21/30/8 22/31/8
f 26/32/9 27/33/9 28/34/9 29/35/9
f 28/36/10 27/37/10 30/38/10 31/39/10
f 32/40/11 33/41/11 34/42/11 35/43/11
f 36/44/12 37/45/12 32/46/12 35/47/12
f 34/48/13 33/49/13 38/50/13 39/51/13
f 37/52/14 36/53/14 39/54/14 38/55/14
f 40/56/15 41/57/15 3/58/15 6/59/15
f 42/60/16 26/61/16 7/62/16 43/63/16
f 44/64/17 45/65/17 11/66/17 46/67/17
f 31/68/18 30/69/18 14/70/18 13/71/18
f 47/72/19 36/73/19 48/74/19 49/75/19
f 44/76/20 50/77/20 36/78/20 47/79/20
f 35/80/21 51/81/21 52/82/21 53/83/21
f 54/84/22 43/85/22 51/86/22 35/87/22
f 55/88/23 46/89/23 56/90/23 39/91/23
f 39/92/24 56/93/24 57/94/24 58/95/24
f 34/96/25 59/97/25 42/98/25 60/99/25
f 61/100/26 62/101/26 59/102/26 34/103/26
f 49/104/27 41/105/27 63/106/27 47/107/27
f 63/108/28 45/109/28 44/110/28 47/111/28
f 53/112/29 52/113/29 49/114/29 48/115/29
f 60/116/30 42/117/30 43/118/30 54/119/30
f 50/120/31 44/121/31 46/122/31 55/123/31
f 58/124/32 57/125/32 62/126/32 61/127/32
f 64/128/33 65/129/33 66/130/33 67/131/33
f 50/132/34 55/133/34 39/134/34 36/135/34
f 39/136/35 58/137/35 61/138/35 34/139/35
f 60/140/36 54/141/36 35/142/36 34/143/36
f 35/144/37 53/145/37 48/146/37 36/147/37
f 52/148/38 51/149/38 4/150/38 3/151/38
f 4/152/39 51/153/39 43/154/39 7/155/39
f 10/156/40 56/157/40 46/158/40 11/159/40
f 57/160/41 56/161/41 10/162/41 14/163/41
f 42/164/42 59/165/42 27/166/42 26/167/42
f 27/168/43 59/169/43 62/170/43 30/171/43
f 49/172/44 52/173/44 3/174/44 41/175/44
f 29/176/45 8/177/45 7/178/45 26/179/45
f 68/180/46 12/181/46 11/182/46 45/183/46
f 62/184/47 57/185/47 14/186/47 30/187/47
f 41/188/48 40/189/48 69/190/48 63/191/48
f 69/192/49 68/193/49 45/194/49 63/195/49
f 32/196/50 37/197/50 70/198/50 71/199/50
f 37/200/51 38/201/51 1/202/51 70/203/51
f 38/204/52 33/205/52 72/206/52 1/207/52
f 33/208/53 32/209/53 71/210/53 72/211/53
f 71/212/54 70/213/54 73/214/54 74/215/54
f 70/216/55 1/217/55 75/218/55 73/219/55
f 1/220/56 72/221/56 76/222/56 75/223/56
f 72/224/57 71/225/57 74/226/57 76/227/57
f 77/228/58 78/229/58 79/230/58
f 77/231/59 79/232/59 80/233/59
f 77/234/60 80/235/60 81/236/60
f 77/237/61 81/238/61 82/239/61
f 77/240/62 82/241/62 83/242/62
f 77/243/63 83/244/63 84/245/63
f 77/246/64 84/247/64 85/248/64
f 77/249/65 85/250/65 86/251/65
f 77/252/66 86/253/66 87/254/66
f 77/255/67 87/256/67 88/257/67
f 77/258/68 88/259/68 89/260/68
f 77/261/69 89/262/69 90/263/69
f 77/264/70 90/265/70 91/266/70
f 77/267/71 91/268/71 92/269/71
f 77/270/72 92/271/72 93/272/72
f 77/273/73 93/274/73 78/275/73
f 94/276/74 79/277/74 78/278/74 95/279/74
f 96/280/75 80/281/75 79/282/75 94/283/75
f 97/284/76 81/285/76 80/286/76 96/287/76
f 98/288/77 82/289/77 81/290/77 97/291/77
f 99/292/78 83/293/78 82/294/78 98/295/78
f 100/296/79 84/297/79 83/298/79 99/299/79
f 101/300/80 85/301/80 84/302/80 100/303/80
f 102/304/81 86/305/81 85/306/81 101/307/81
f 103/308/82 87/309/82 86/310/82 102/311/82
f 104/312/83 88/313/83 87/314/83 103/315/83
f 105/316/84 89/317/84 88/318/84 104/319/84
f 106/320/85 90/321/85 89/322/85 105/323/85
f 107/324/86 91/325/86 90/326/86 106/327/86
f 108/328/87 92/329/87 91/330/87 107/331/87
f 2/332/88 93/333/88 92/334/88 108/335/88
f 95/336/89 78/337/89 93/338/89 2/339/89
f 109/340/90 94/341/90 95/342/90 110/343/90
f 111/344/91 96/345/91 94/346/91 109/347/91
f 112/348/92 97/349/92 96/350/92 111/351/92
f 113/352/93 98/353/93 97/354/93 112/355/93
f 114/356/94 99/357/94 98/358/94 113/359/94
f 115/360/95 100/361/95 99/362/95 114/363/95
f 116/364/96 101/365/96 100/366/96 115/367/96
f 117/368/97 102/369/97 101/370/97 116/371/97
f 118/372/98 103/373/98 102/374/98 117/375/98
f 119/376/99 104/377/99 103/378/99 118/379/99
f 120/380/100 105/381/100 104/382/100 119/383/100
f 121/384/101 106/385/101 105/386/101 120/387/101
f 122/388/102 107/389/102 106/390/102 121/391/102
f 123/392/103 108/393/103 107/394/103 122/395/103
f 124/396/104 2/397/104 108/398/104 123/399/104
f 110/400/105 95/401/105 2/402/105 124/403/105
f 125/404/106 109/405/106 110/406/106 126/407/106
f 127/408/107 111/409/107 109/410/107 125/411/107
f 128/412/108 112/413/108 111/414/108 127/415/108
f 129/416/109 113/417/109 112/418/109 128/419/109
f 130/420/110 114/421/110 113/422/110 129/423/110
f 131/424/111 115/425/111 114/426/111 130/427/111
f 132/428/112 116/429/112 115/430/112 131/431/112
f 133/432/113 117/433/113 116/434/113 132/435/113
f 134/436/114 118/437/114 117/438/114 133/439/114
f 135/440/115 119/441/115 118/442/115 134/443/115
f 136/444/116 120/445/116 119/446/116 135/447/116
f 137/448/117 121/449/117 120/450/117 136/451/117
f 138/452/118 122/453/118 121/454/118 137/455/118
f 139/456/119 123/457/119 122/458/119 138/459/119
f 140/460/120 124/461/120 123/462/120 139/463/120
f 126/464/121 110/465/121 124/466/121 140/467/121
f 125/468/122 126/469/122 141/470/122 142/471/122
f 127/472/123 125/473/123 142/474/123 143/475/123
f 128/476/124 127/477/124 143/478/124 144/479/124
f 129/480/125 128/481/125 144/482/125 145/483/125
f 130/484/126 129/485/126 145/486/126 146/487/126
f 131/488/127 130/489/127 146/490/127 147/491/127
f 132/492/128 131/493/128 147/494/128 148/495/128
f 133/496/129 132/497/129 148/498/129 149/499/129
f 134/500/130 133/501/130 149/502/130 150/503/130
f 135/504/131 134/505/131 150/506/131 151/507/131
f 136/508/132 135/509/132 151/510/132 152/511/132
f 137/512/133 136/513/133 152/514/133 153/515/133
f 138/516/134 137/517/134 153/518/134 154/519/134
f 139/520/135 138/521/135 154/522/135 155/523/135
f 140/524/136 139/525/136 155/526/136 156/527/136
f 126/528/137 140/529/137 156/530/137 141/531/137
f 66/532/138 74/533/138 73/534/138 67/535/138
f 67/536/139 73/537/139 75/538/139 64/539/139
f 64/540/140 75/541/140 76/542/140 65/543/140
f 65/544/141 76/545/141 74/546/141 66/547/141
f 157/548/142 158/549/142 22/550/142 21/551/142
f 21/552/143 25/553/143 16/554/143
f 16/555/144 25/556/144 17/557/144
f 17/558/145 25/559/145 22/560/145
f 6/561/146 5/562/146 16/563/146 15/564/146
f 5/565/147 8/566/147 19/567/147 16/568/147
f 8/569/148 29/570/148 20/571/148 19/572/148
f 29/573/149 28/574/149 21/575/149 20/576/149
f 28/577/150 31/578/150 157/579/150 21/580/150
f 31/581/151 13/582/151 158/583/151 157/584/151
f 13/585/152 9/586/152 22/587/152 158/588/152
f 9/589/153 12/590/153 23/591/153 22/592/153
f 12/593/154 68/594/154 24/595/154 23/596/154
f 68/597/155 69/598/155 17/599/155 24/600/155
f 69/601/156 40/602/156 18/603/156 17/604/156
f 40/605/157 6/606/157 15/607/157 18/608/157