# Made in Blockbench 4.12.6
mtllib radar.mtl

o beveled_cuboid
v 0.20892857142857144 0.34374999999999994 0.0625
v 0.20892857142857144 0.34374999999999994 -0.0625
v -0.20892857142857144 0.34374999999999994 0.0625
v -0.20892857142857144 0.34374999999999994 -0.0625
v 0.20892857142857144 0.15624999999999994 0.0625
v 0.20892857142857144 0.15624999999999994 -0.0625
v -0.20892857142857144 0.15624999999999994 0.0625
v -0.20892857142857144 0.15624999999999994 -0.0625
v -0.24375000000000002 0.203125 0.0625
v -0.24375000000000002 0.296875 0.0625
v -0.24375000000000002 0.203125 -0.0625
v -0.24375000000000002 0.296875 -0.0625
v 0.24375000000000002 0.203125 0.0625
v 0.24375000000000002 0.296875 0.0625
v 0.24375000000000002 0.203125 -0.0625
v 0.24375000000000002 0.296875 -0.0625
v 0.20892857142857144 0.203125 -0.125
v 0.20892857142857144 0.296875 -0.125
v -0.20892857142857144 0.203125 -0.125
v -0.20892857142857144 0.296875 -0.125
v 0.20892857142857144 0.203125 0.125
v 0.20892857142857144 0.296875 0.125
v -0.20892857142857144 0.203125 0.125
v -0.20892857142857144 0.296875 0.125
vt 0.109375 0.9539179468450327
vt 0.046875 0.9539179468450327
vt 0.046875 0.9070429468450327
vt 0.109375 0.9070429468450327
vt 0.265625 0.7507929468450327
vt 0.265625 0.7976679468450327
vt 0.203125 0.7976679468450327
vt 0.203125 0.7507929468450327
vt 0.40625 0.9375
vt 0.40625 1
vt 0.1875 1
vt 0.1875 0.9375
vt 0.3125 0.625
vt 0.53125 0.625
vt 0.53125 0.6875
vt 0.3125 0.6875
vt 0.21875 0.59375
vt 0.21875 0.65625
vt 0 0.65625
vt 0 0.59375
vt 0.5625 0.90625
vt 0.34375 0.90625
vt 0.34375 0.84375
vt 0.5625 0.84375
vt 0.11785 0.9818585718450328
vt 0.05804081521623821 1
vt 0.04956604705364527 0.9720601393282657
vt 0.10937523183740705 0.9539187111732985
vt 0.26293395294635474 0.8158101393282656
vt 0.2544591847837618 0.84375
vt 0.19465 0.8256085718450328
vt 0.20312476816259295 0.7976687111732985
vt 0.46875 0.5625
vt 0.46875 0.59375
vt 0.25 0.59375
vt 0.25 0.5625
vt 0.21875 0.5625
vt 0 0.5625
vt 0 0.53125
vt 0.21875 0.53125
vt 0.04956604705364527 0.8889007543617998
vt 0.05804081521623821 0.8609608936900656
vt 0.11785 0.8791023218450328
vt 0.10937523183740705 0.9070421825167672
vt 0.19465 0.7228523218450328
vt 0.2544591847837618 0.7047108936900656
vt 0.26293395294635474 0.7326507543617999
vt 0.20312476816259295 0.7507921825167672
vt 0.34375 0.78125
vt 0.5625 0.78125
vt 0.5625 0.8125
vt 0.34375 0.8125
vt 0.34375 0.75
vt 0.34375 0.71875
vt 0.5625 0.71875
vt 0.5625 0.75
vt 0.109375 0.9070429468450327
vt 0.14515 0.9070429468450327
vt 0.14515 0.9539179468450327
vt 0.109375 0.9539179468450327
vt 0.011099999999999999 0.9539179468450327
vt 0.011099999999999999 0.9070429468450327
vt 0.046875 0.9070429468450327
vt 0.046875 0.9539179468450327
vt 0.16735 0.7976679468450327
vt 0.16735 0.7507929468450327
vt 0.203125 0.7507929468450327
vt 0.203125 0.7976679468450327
vt 0.265625 0.7507929468450327
vt 0.3014 0.7507929468450327
vt 0.3014 0.7976679468450327
vt 0.265625 0.7976679468450327
vt 0.038400000000000004 0.8791023218450328
vt 0.046875 0.9070429468450327
vt 0.011099999999999999 0.9070429468450327
vt 0.2741 0.7228523218450328
vt 0.3014 0.7507929468450327
vt 0.265625 0.7507929468450327
vt 0.11785 0.8791023218450328
vt 0.14515 0.9070429468450327
vt 0.109375 0.9070429468450327
vt 0.19465 0.7228523218450328
vt 0.203125 0.7507929468450327
vt 0.16735 0.7507929468450327
vt 0.038400000000000004 0.9818585718450328
vt 0.011099999999999999 0.9539179468450327
vt 0.046875 0.9539179468450327
vt 0.2741 0.8256085718450328
vt 0.265625 0.7976679468450327
vt 0.3014 0.7976679468450327
vt 0.11785 0.9818585718450328
vt 0.109375 0.9539179468450327
vt 0.14515 0.9539179468450327
vt 0.19465 0.8256085718450328
vt 0.16735 0.7976679468450327
vt 0.203125 0.7976679468450327
vn 1 0 0
vn -1 0 0
vn 0 1 0
vn 0 -1 0
vn 0 0 1
vn 0 0 -1
vn 0.8027438479544524 0.5963240013375942 0
vn -0.8027438479544524 0.5963240013375942 0
vn 0 0.8000000000000005 0.5999999999999996
vn 0 0.8000000000000005 -0.5999999999999996
vn 0.8027438479544531 -0.5963240013375932 0
vn -0.8027438479544531 -0.5963240013375932 0
vn 0 -0.7999999999999998 0.6000000000000005
vn 0 -0.7999999999999998 -0.6000000000000005
vn 0.8735679762838149 0 -0.4867021582152685
vn 0.8735679762838149 0 0.4867021582152685
vn -0.8735679762838149 0 -0.4867021582152685
vn -0.8735679762838149 0 0.4867021582152685
vn 0.7327934916262994 -0.544360879493822 0.40827065962036696
vn -0.7327934916262994 -0.544360879493822 0.40827065962036696
vn 0.7327934916262994 -0.544360879493822 -0.40827065962036696
vn -0.7327934916262994 -0.544360879493822 -0.40827065962036696
vn 0.7327934916262988 0.544360879493823 0.40827065962036674
vn -0.7327934916262988 0.544360879493823 0.40827065962036674
vn 0.7327934916262988 0.544360879493823 -0.40827065962036674
vn -0.7327934916262988 0.544360879493823 -0.40827065962036674
usemtl m_e6d6a7b1-8c04-68df-2caf-6effbb3c5ce9
f 16/1/1 14/2/1 13/3/1 15/4/1
f 9/5/2 10/6/2 12/7/2 11/8/2
f 1/9/3 2/10/3 4/11/3 3/12/3
f 8/13/4 6/14/4 5/15/4 7/16/4
f 21/17/5 22/18/5 24/19/5 23/20/5
f 20/21/6 18/22/6 17/23/6 19/24/6
f 2/25/7 1/26/7 14/27/7 16/28/7
f 10/29/8 3/30/8 4/31/8 12/32/8
f 22/33/9 1/34/9 3/35/9 24/36/9
f 4/37/10 2/38/10 18/39/10 20/40/10
f 13/41/11 5/42/11 6/43/11 15/44/11
f 8/45/12 7/46/12 9/47/12 11/48/12
f 7/49/13 5/50/13 21/51/13 23/52/13
f 17/53/14 6/54/14 8/55/14 19/56/14
f 15/57/15 17/58/15 18/59/15 16/60/15
f 22/61/16 21/62/16 13/63/16 14/64/16
f 20/65/17 19/66/17 11/67/17 12/68/17
f 9/69/18 23/70/18 24/71/18 10/72/18
f 5/73/19 13/74/19 21/75/19
f 7/76/20 23/77/20 9/78/20
f 6/79/21 17/80/21 15/81/21
f 8/82/22 11/83/22 19/84/22
f 1/85/23 22/86/23 14/87/23
f 3/88/24 10/89/24 24/90/24
f 2/91/25 16/92/25 18/93/25
f 4/94/26 20/95/26 12/96/26