# Made in Blockbench 4.12.6
mtllib remote_bracelet.mtl

o torus
v 0.8553704555702558 2.1323439285443317 0.22408887241858744
v 0.2606046101667001 3.2624999999999997 -0.31690952255126004
v 0.31134059068449477 3.5188262081801236 -0.22408887241858694
v 0.3323561219152624 3.625 3.830507348060334e-16
v 0.3113405906844948 3.5188262081801236 0.2240888724185877
v 0.2606046101667001 3.2624999999999997 0.3169095225512607
v 0.20986862964890549 3.0061737918198768 0.22408887241858763
v 0.1888530984181378 2.9 2.9968884271772907e-16
v 0.20986862964890543 3.0061737918198768 -0.224088872418587
v 0.7577136656402408 2.8739736709748724 -0.31690952255126015
v 0.8963269421866805 3.0616174786741994 -0.22408887241858705
v 0.9537424412571883 3.13934208871859 2.7521301576683683e-16
v 0.8963269421866805 3.0616174786742 0.22408887241858758
v 0.7577136656402408 2.8739736709748724 0.3169095225512606
v 0.619100389093801 2.6863298632755446 0.22408887241858755
v 0.5616848900232932 2.608605253231154 2.3498621129421116e-16
v 0.6191003890938008 2.686329863275544 -0.22408887241858708
v 1.0447197126344903 2.2010263290251277 -0.31690952255126026
v 1.2340689696987246 2.2697087295059237 -0.22408887241858721
v 1.3125 2.2981579112814097 8.843260741861071e-17
v 1.2340689696987248 2.2697087295059237 0.2240888724185874
v 1.0447197126344903 2.2010263290251277 0.3169095225512605
v 0.7769394252689803 2.103894746768846 1.2291796628527547e-16
v 0.8553704555702558 2.1323439285443317 -0.2240888724185872
v 1.0447197126344903 1.423973670974872 -0.3169095225512605
v 1.2340689696987246 1.355291270494076 -0.22408887241858744
v 1.3125 1.3268420887185899 -1.2724283065978246e-16
v 1.2340689696987248 1.3552912704940758 0.2240888724185872
v 1.0447197126344903 1.423973670974872 0.31690952255126026
v 0.8553704555702558 1.4926560714556678 0.22408887241858727
v 0.7769394252689803 1.521105253231154 -6.48729656176042e-18
v 0.8553704555702558 1.492656071455668 -0.22408887241858735
v 0.757713665640241 0.7510263290251282 -0.3169095225512606
v 0.8963269421866805 0.563382521325801 -0.2240888724185876
v 0.9537424412571883 0.4856579112814101 -3.140232390080085e-16
v 0.8963269421866807 0.5633825213258006 0.22408887241858702
v 0.757713665640241 0.7510263290251282 0.31690952255126015
v 0.6191003890938013 0.9386701367244557 0.22408887241858716
v 0.5616848900232935 1.0163947467688461 -1.1855554157069603e-16
v 0.619100389093801 0.9386701367244559 -0.22408887241858746
v 0.26060461016670045 0.36250000000000027 -0.3169095225512607
v 0.3113405906844951 0.10617379181987707 -0.22408887241858771
v 0.3323561219152628 4.440892098500626e-16 -4.21860958047205e-16
v 0.31134059068449516 0.10617379181987663 0.2240888724185869
v 0.26060461016670045 0.36250000000000027 0.31690952255126004
v 0.20986862964890568 0.6188262081801235 0.22408887241858708
v 0.188853098418138 0.7250000000000001 -1.83258172994214e-16
v 0.20986862964890568 0.6188262081801237 -0.22408887241858755
v -0.31340748382179806 0.36250000000000004 -0.3169095225512607
v -0.36414346433959255 0.10617379181987663 -0.22408887241858771
v -0.3851589955703603 0 -4.218609580472051e-16
v -0.3641434643395926 0.1061737918198764 0.2240888724185869
v -0.31340748382179806 0.36250000000000004 0.31690952255126004
v -0.2626715033040034 0.6188262081801232 0.22408887241858708
v -0.2416559720732358 0.7250000000000001 -1.83258172994214e-16
v -0.2626715033040034 0.6188262081801235 -0.22408887241858755
v -0.8105165392953392 0.7510263290251278 -0.3169095225512606
v -0.8866298158417785 0.5633825213258004 -0.2240888724185876
v -0.9440453149122865 0.4856579112814099 -3.1402323900800853e-16
v -0.8241298158417789 0.5633825213258001 0.22408887241858702
v -0.8105165392953392 0.7510263290251278 0.31690952255126015
v -0.6719032627488994 0.9386701367244552 0.22408887241858716
v -0.6144877636783916 1.016394746768846 -1.1855554157069608e-16
v -0.6719032627488992 0.9386701367244554 -0.22408887241858746
v -1.0975225862895883 1.4239736709748723 -0.3169095225512605
v -1.2243718433538227 1.3552912704940767 -0.41158887241858744
v -1.2990312398225914 0.8435087553852573 -2.1515927808629492e-16
v -1.1618718433538229 1.3552912704940763 0.3490888724185872
v -1.0975225862895883 1.4239736709748723 0.31690952255126026
v -0.9081733292253539 1.492656071455668 0.22408887241858727
v -0.8297422989240787 1.5211052532311542 -6.4872965617603705e-18
v -0.9081733292253539 1.4926560714556683 -0.22408887241858735
v -1.0975225862895888 2.2010263290251273 -0.31690952255126026
v -1.0368718433538227 2.394708729505923 -0.4115888724185872
v -1.1115312398225914 3.0314912446147417 2.151592780862947e-16
v -1.2243718433538229 2.457208729505923 0.3490888724185875
v -1.0350225862895888 2.2010263290251273 0.3169095225512605
v -0.9081733292253542 2.1323439285443313 0.22408887241858744
v -0.8297422989240787 2.1038947467688454 1.2291796628527535e-16
v -0.9081733292253539 2.1323439285443313 -0.2240888724185872
v -0.8105165392953395 2.8739736709748716 -0.31690952255126015
v -0.8241298158417789 3.061617478674199 -0.22408887241858705
v -1.006545314912287 3.1393420887185894 2.9461812738742253e-16
v -1.0116298158417791 3.124117478674199 0.2240888724185876
v -0.7480165392953395 2.8739736709748716 0.3169095225512606
v -0.6719032627488997 2.686329863275544 0.22408887241858755
v -0.6144877636783919 2.6086052532311537 2.349862112942111e-16
v -0.6719032627488997 2.686329863275544 -0.22408887241858708
v -0.3134074838217984 3.2624999999999997 -0.31690952255126004
v -0.364143464339593 3.5188262081801236 -0.22408887241858694
v -0.38515899557036065 3.625 3.830507348060334e-16
v -0.3641434643395931 3.5188262081801236 0.2240888724185877
v -0.3134074838217984 3.2624999999999997 0.3169095225512607
v -0.2626715033040038 3.0061737918198768 0.22408887241858763
v -0.24165597207323608 2.9 2.9968884271772907e-16
v -0.2626715033040038 3.0061737918198768 -0.224088872418587
vt 0.23384179952663503 0.5064770683663458
vt 0.24018319216383868 0.47240057901688803
vt 0.3155531906156377 0.5265532186830604
vt 0.29788977039791703 0.5524949370035614
vt 0.4870610822154757 0.4272957154156374
vt 0.4896884639862441 0.39629917311553753
vt 0.5843755985137559 0.4237357078884433
vt 0.5762013823456553 0.453125
vt 0.09125098299662832 0.43963832688446247
vt 0.08862360122585992 0.4086417845843626
vt 0.17776390135603948 0.3828125
vt 0.18593811752414008 0.41220179211155683
vt 0.000998515623571089 0.7412543670628062
vt 0.034585188794912375 0.7498191654985193
vt 0.04942974890818472 0.8272751261580068
vt 0.018467210689703778 0.832402541713344
vt 0.6573646479984709 0.6093752735520074
vt 0.6637067845872809 0.64345234375
vt 0.610980527108393 0.6813363429748709
vt 0.5933170661735434 0.6553936836616564
vt 0.7204665023935358 0.43750082906952015
vt 0.7230938194617192 0.4684966080407288
vt 0.666280869477902 0.4849590262754926
vt 0.6581067259320087 0.455570524824246
vt 0.26215632791092347 0.29712922102879136
vt 0.2595290108427401 0.328125
vt 0.1971692343812129 0.31005530424527417
vt 0.20534337792710622 0.28066680279402767
vt 0.5579513386924578 0.33168455299137756
vt 0.5720737671903944 0.3000297520425371
vt 0.6236081862163187 0.35972891838764665
vt 0.6003763135184119 0.38083103949872776
vt 0.297889397004508 0.5524954853948991
vt 0.3155531906156377 0.5265532186830604
vt 0.36551136718550065 0.6218691942021269
vt 0.34034298480232067 0.6334933402620422
vt 0.6214210713317407 0.7421875
vt 0.6112321383659953 0.7134352448893099
vt 0.72444921875 0.697653554457011
vt 0.7280054053666611 0.7273303692652502
vt 0.5877947017493342 0.7787522551106901
vt 0.5979836347150798 0.75
vt 0.7045679687499999 0.7648571307347498
vt 0.7010117821333389 0.794533945542989
vt 0.01846655616144388 0.8324026501036303
vt 0.04942974890818472 0.8272751261580068
vt 0.10509024537181495 0.8998345414216895
vt 0.08396624781387799 0.9177885095229332
vt 0.5933173243049898 0.6553940627841962
vt 0.610980527108393 0.6813363429748709
vt 0.5760327202865044 0.7480167020490016
vt 0.5508651847126549 0.7363926766860296
vt 0.26298059043861927 0.35414405975544605
vt 0.25279243124169654 0.38289642272424373
vt 0.18486171875000001 0.37342734375
vt 0.1884179053666611 0.34375052894176095
vt 0.8621674946250355 0.5624166062175171
vt 0.8723556538219582 0.5911689691863148
vt 0.79779296875 0.6015625
vt 0.7942367821333389 0.5718856851917609
vt 0.6003766530258803 0.3808307311151632
vt 0.6236081862163187 0.35972891838764665
vt 0.6459775219866379 0.4484000660467362
vt 0.6187917254519641 0.45382733785449814
vt 0.3403430748250316 0.6334932986845929
vt 0.36551136718550065 0.6218691942021269
vt 0.3789467629186882 0.7353783891223362
vt 0.35176021342984437 0.7299512100897285
vt 0.7280054687499999 0.727330898207011
vt 0.72444921875 0.697653554457011
vt 0.84586328125 0.697653554457011
vt 0.8423070312500001 0.727330898207011
vt 0.70101171875 0.7945344744847498
vt 0.7045679687499999 0.7648571307347498
vt 0.8188695312500001 0.7648571307347498
vt 0.82242578125 0.7945344744847498
vt 0.08396632337056245 0.9177884453048657
vt 0.10509024537181495 0.8998345414216895
vt 0.1878213533529952 0.950727011383058
vt 0.18132216826708258 0.9776773979958764
vt 0.5508652052500802 0.7363926861715651
vt 0.5760327202865044 0.7480167020490016
vt 0.5666338286323886 0.8274233287343928
vt 0.5394480542820987 0.8328505961133464
vt 0.18841796875 0.34375
vt 0.18486171875000001 0.37342734375
vt 0.11201328125 0.37342734375
vt 0.10845703125 0.34375
vt 0.79423671875 0.57188515625
vt 0.79779296875 0.6015625
vt 0.71783203125 0.6015625
vt 0.72138828125 0.57188515625
vt 0.6187917476363478 0.4538273334256899
vt 0.6459775219866379 0.4484000660467362
vt 0.6345603710186565 0.5448579759885177
vt 0.6093928559822321 0.5332339601110812
vt 0.3517601161881702 0.72995119067763
vt 0.3789467629186882 0.7353783891223362
vt 0.3526212714145694 0.8397236002841498
vt 0.32938917229817893 0.8186219326360473
vt 0.8423070946333389 0.7273303692652502
vt 0.84586328125 0.697653554457011
vt 0.9590803616340047 0.7134352448893099
vt 0.9488914286682593 0.7421875
vt 0.8224257178666611 0.794533945542989
vt 0.8188695312500001 0.7648571307347498
vt 0.9254538652849202 0.75
vt 0.9356427982506658 0.7787522551106901
vt 0.1813221450206004 0.977677494392836
vt 0.1878213533529952 0.950727011383058
vt 0.2776841302063052 0.967686992108211
vt 0.28707010899661933 0.9976355180991932
vt 0.5394480320977151 0.8328506005421548
vt 0.5666338286323886 0.8274233287343928
vt 0.5850489010584725 0.9004199354737279
vt 0.561817367868034 0.9215217482012443
vt 0.10845709463333893 0.34375052894176095
vt 0.11201328125 0.37342734375
vt 0.044082568758303464 0.38289642272424373
vt 0.033894409561380734 0.35414405975544605
vt 0.7213882178666611 0.5718856851917609
vt 0.71783203125 0.6015625
vt 0.6432693461780418 0.5911689691863148
vt 0.6534575053749645 0.5624166062175171
vt 0.6093928354448068 0.5332339506255457
vt 0.6345603710186565 0.5448579759885177
vt 0.5921082314263215 0.625856589890351
vt 0.5744450286229182 0.5999143096996764
vt 0.32938966339951764 0.818622378702379
vt 0.3526212714145694 0.8397236002841498
vt 0.29197628574977524 0.909975509604505
vt 0.2778547243636348 0.8783210961526597
vt 0.6034861176543448 0.890625
vt 0.5953119014862441 0.8612357078884432
vt 0.6899990360137559 0.8337991731155374
vt 0.6926264177845243 0.8647957154156374
vt 0.3843743824758599 0.46688929211155683
vt 0.3925485986439605 0.4375
vt 0.4816888987741401 0.4633292845843626
vt 0.4790615170033717 0.49432582688446247
vt 0.28706991058722353 0.9976348850198863
vt 0.2776841302063052 0.967686992108211
vt 0.3535117624679214 0.9460085006422964
vt 0.37630191042133787 0.9721241959848347
vt 0.5618170283605658 0.9215220565848088
vt 0.5850489010584725 0.9004199354737279
vt 0.6274738758844266 0.9495664219810782
vt 0.6133514473864901 0.9812212229299186
vt 0.8340807740679913 0.385258024824246
vt 0.825906630522098 0.4146465262754926
vt 0.7690936805382808 0.3981841080407288
vt 0.7717209976064642 0.36718832906952015
vt 0.17746912207289378 0.28847930279402767
vt 0.1856432656187871 0.31786780424527417
vt 0.12328348915725988 0.3359375
vt 0.12065617208907653 0.30494172102879136
vt 0.5744447704914719 0.5999139305771365
vt 0.5921082314263215 0.625856589890351
vt 0.528060649601394 0.671875
vt 0.521718513012584 0.6377979298020073
vt 0.27785469404948293 0.8783210282014843
vt 0.29197628574977524 0.9099755096045049
vt 0.20987431838230086 0.9296875
vt 0.20808583585612467 0.8950719430298295
vt 0.6926263797637559 0.8647952668655374
vt 0.6899990360137559 0.8337991731155374
vt 0.7796880985137559 0.8337991731155374
vt 0.7770615360137558 0.8647952668655374
vt 0.4790615550241401 0.4943253783343625
vt 0.4816888987741401 0.4633292845843626
vt 0.5661240550241401 0.4633292845843626
vt 0.5687506175241401 0.4943253783343625
vt 0.3763019593439737 0.972124252046281
vt 0.3535117624679214 0.9460085006422964
vt 0.3980293420909812 0.8897370884892684
vt 0.42868895497692416 0.9059056874324571
vt 0.6133513340193888 0.9812214770372786
vt 0.6274738758844266 0.9495664219810782
vt 0.6849088617069901 0.9633560935769532
vt 0.6831201879187603 0.9979724097504012
vt 0.7717210242882808 0.3671880142907288
vt 0.7690936805382808 0.3981841080407288
vt 0.7152803992882808 0.3981841080407288
vt 0.7126538367882808 0.3671880142907288
vt 0.12065614540725988 0.30494140625
vt 0.1232834891572599 0.3359375
vt 0.06421630165725989 0.3359375
vt 0.06684286415725989 0.30494140625
vt 0.5217184621013939 0.6377976562500001
vt 0.528060649601394 0.671875
vt 0.456309087101394 0.671875
vt 0.462651274601394 0.6377976562500001
vt 0.2080858527335766 0.8950722696879828
vt 0.20987431838230086 0.9296875
vt 0.1313133095512283 0.8928116103594632
vt 0.13508494132538146 0.8652741763196597
vt 0.11011456035936698 0.5980801864307502
vt 0.10251034168319473 0.5679169512528678
vt 0.19502343749999998 0.565221875
vt 0.19686630401094496 0.5956694045735822
vt 0.3961527149848029 0.5355905676166819
vt 0.4101538879489064 0.5078125
vt 0.48920546875 0.5257914638660248
vt 0.48568545186557993 0.5583224461206506
vt 0.4286890564755037 0.9059057409585677
vt 0.3980293420909812 0.8897370884892684
vt 0.4016742747016231 0.8109557374415458
vt 0.42347908972461235 0.8250817102653719
vt 0.6831202387683009 0.9979714256560491
vt 0.6849088617069901 0.9633560935769532
vt 0.7450214775655211 0.9388279955067288
vt 0.756141048434462 0.9681763226634614
vt 0.7126537932080557 0.3671875
vt 0.7152803992882808 0.3981841080407288
vt 0.6584677066293299 0.4146446071697024
vt 0.6502942259320087 0.38525511050725914
vt 0.06684290773748498 0.3049408919592712
vt 0.06421630165725989 0.3359375
vt 0.0018567343812128934 0.31786988949274086
vt 0.010030215078534119 0.2884803928302976
vt 0.46265109430170903 0.6377986250221059
vt 0.456309087101394 0.671875
vt 0.39226194616557386 0.6258559762751553
vt 0.40992583423524454 0.5999145765158873
vt 0.1350916807884417 0.8652249701588789
vt 0.1313133095512283 0.8928116103594632
vt 0.0656865489625009 0.8043612344923082
vt 0.07579718486189505 0.7979552399596033
vt 0.19686640625 0.59567109375
vt 0.19502343749999998 0.565221875
vt 0.25803046875 0.565221875
vt 0.296875 0.6328125
vt 0.4856315724665964 0.5588203840083866
vt 0.48920546875 0.5257914638660248
vt 0.5973388221304273 0.5142832389875724
vt 0.5453347488556338 0.5722612737627728
vt 0.48920546875 0.5257914638660248
vt 0.51011328125 0.5099633388660249
vt 0.6015625 0.5099633388660249
vt 0.59682109375 0.5143383388660248
vt 0.7561410392977663 0.9681762985486161
vt 0.7450214775655211 0.9388279955067288
vt 0.7945699224280494 0.8821484480524661
vt 0.8163290078477622 0.89932596774469
vt 0.8645430904386193 0.33070655975544616
vt 0.8543541574728737 0.3594588148661363
vt 0.78642421875 0.34998984375
vt 0.789980405366661 0.32031302894176095
vt 0.8699792208562127 0.5077292140756247
vt 0.8801681538219581 0.5364814691863148
vt 0.80560546875 0.546875
vt 0.8020492821333389 0.5171981851917609
vt 0.40992581972123404 0.5999145978313387
vt 0.39226194616557386 0.6258559762751553
vt 0.34981076852478277 0.5448568582127014
vt 0.37497880480517276 0.5332338237178685
vt 0.2379484375 0.80973203125
vt 0.24921171875 0.828125
vt 0.1171875 0.828125
vt 0.142359375 0.82293125
vt 0.32486724478144235 0.681903991599064
vt 0.31335222906314725 0.6865922488472316
vt 0.22184260230794162 0.6531022930493269
vt 0.20219606054616868 0.6194312038915715
vt 0.8163289593924716 0.8993259294920847
vt 0.7945699224280494 0.8821484480524661
vt 0.8222441564482679 0.8071291952084588
vt 0.8433644679022849 0.8057696948574264
vt 0.78998046875 0.3203125
vt 0.78642421875 0.34998984375
vt 0.71357578125 0.34998984375
vt 0.71001953125 0.3203125
vt 0.80204921875 0.51719765625
vt 0.80560546875 0.546875
vt 0.72564453125 0.546875
vt 0.72920078125 0.51719765625
vt 0.37497874875849224 0.533233849601195
vt 0.34981076852478277 0.5448568582127014
vt 0.3383974780133621 0.4483984914098966
vt 0.3655830351312811 0.45382684681608587
vt 0.014367422304595173 0.933189664826166
vt 0 0.957215925784294
vt 0 0.84375
vt 0.009244649496071386 0.8666607856106321
vt 0.2016722898079416 0.618533543049327
vt 0.22184260230794162 0.6531022930493269
vt 0.1303933835579416 0.6531022930493269
vt 0.11455900855794161 0.6121647930493269
vt 0.22184260230794162 0.6531022930493269
vt 0.22351916480794162 0.6744780742993269
vt 0.1482355710579416 0.6744780742993269
vt 0.1303933835579416 0.6531022930493269
vt 0.710019594633339 0.32031302894176095
vt 0.71357578125 0.34998984375
vt 0.6456458425271263 0.3594588148661363
vt 0.6354569095613807 0.33070655975544616
vt 0.7292007178666611 0.5171981851917609
vt 0.72564453125 0.546875
vt 0.6510818461780418 0.5364814691863148
vt 0.6612707791437874 0.5077292140756247
vt 0.3655830956709121 0.45382685890451324
vt 0.3383974780133621 0.4483984914098966
vt 0.36077285827307937 0.3597288688313698
vt 0.3840031440923134 0.380831507654805
vt 0.09889378967520637 0.5531034014513903
vt 0.09587097554344551 0.5270552513720302
vt 0.15574803591383868 0.47240057901688803
vt 0.1620211740383307 0.5061061393413637
vt 0.09587097554344551 0.5270552513720302
vt 0.0645427032071959 0.5066237740960069
vt 0.14201171046296834 0.44565555421699754
vt 0.1554835658250796 0.4726419824184487
vt 0.0015335937500000028 0.99947421875
vt 0 0.96875
vt 0.0947890625 0.96875
vt 0.09945390625 1
vt 0.11347993364336606 0.609375
vt 0.1303933835579416 0.6531022930493269
vt 0.06473565510129706 0.6847097491081156
vt 0.036692165713023556 0.664787171524301
vt 0.785580299902712 0.6554383990403617
vt 0.7754672153315132 0.6813809120950091
vt 0.7227739720872809 0.64345234375
vt 0.729104595383791 0.6094371358699215
vt 0.8418932740679913 0.45556761050725914
vt 0.8337197933706701 0.4849571071697024
vt 0.7769071007117192 0.4684966080407288
vt 0.7795337067919443 0.4375
vt 0.3727822849214659 0.2806678928302976
vt 0.3809557656187871 0.31005738949274086
vt 0.3185961983427401 0.328125
vt 0.31596959226251503 0.2971283919592712
vt 0.3840031631801206 0.38083152499437223
vt 0.36077285827307937 0.3597288688313698
vt 0.4123114837855364 0.3000333339319543
vt 0.4264310903897901 0.33168861937220906
vt 0.16209022341383866 0.506477141516888
vt 0.15574803591383868 0.47240057901688803
vt 0.24018319216383868 0.47240057901688803
vt 0.23384178591383867 0.506477141516888
vt 0.4026259639862441 0.4272952668655374
vt 0.39999940148624413 0.39629917311553753
vt 0.4896884639862441 0.39629917311553753
vt 0.48706112023624415 0.4272952668655374
vt 0.0015618824758599215 0.4396378783343625
vt 0.00418844497585992 0.4086417845843626
vt 0.08862360122585991 0.4086417845843626
vt 0.09125094497585992 0.4396378783343625
vt 0.036478637194006264 0.6646354771888501
vt 0.06473565510129706 0.6847097491081157
vt 0.034585188794912375 0.7498191654985193
vt 0.0009984435244962953 0.7412543486771197
vt 0.7291161595872808 0.609375
vt 0.7227739720872809 0.64345234375
vt 0.6637067845872808 0.64345234375
vt 0.6573645970872809 0.609375
vt 0.7795336632117192 0.4375005142907288
vt 0.7769071007117192 0.4684966080407288
vt 0.7230938194617192 0.4684966080407288
vt 0.7204664757117192 0.4375005142907288
vt 0.3159696358427401 0.29712890625
vt 0.3185961983427401 0.328125
vt 0.2595290108427401 0.328125
vt 0.2621563545927401 0.29712890625
vt 0.42643149180223594 0.33168951931410606
vt 0.4123114837855364 0.3000333339319543
vt 0.48208167827616477 0.2832879858635713
vt 0.48386758122383444 0.317904445099061
vt 0.06853548209541963 0.6129679512806137
vt 0.050740737081311826 0.5194094957734818
vt 0.0645427032071959 0.5066237740960069
vt 0.09534158512021021 0.5267099968273051
vt 0.21202835321014596 0.8671875
vt 0.1328125 0.8359375
vt 0.2216990886239709 0.8359375
vt 0.228598454676311 0.8620881989867388
vt 0.11922343750000002 0.7959632812499999
vt 0.0546875 0.744371875
vt 0.32918828125 0.744371875
vt 0.25067734375 0.796875
vt 0.0546875 0.744371875
vt 0.12043079908808084 0.7000054577496809
vt 0.2581321486382494 0.7084646898626554
vt 0.32693178738348116 0.7443718749999999
vn 0.22772842976195 0.29137244033753507 -0.929108100970983
vn 0.5654998873348615 0.7235419941005996 -0.3958495423733455
vn 0.5654998873348617 0.7235419941005997 0.39584954237334513
vn 0.22772842976194968 0.29137244033753446 0.9291081009709833
vn -0.22772842976195026 -0.2913724403375354 0.9291081009709827
vn -0.5654998873348615 -0.7235419941005995 0.3958495423733456
vn -0.565499887334862 -0.723541994100599 -0.39584954237334563
vn -0.2277284297619502 -0.2913724403375352 -0.929108100970983
vn 0.3854599516113521 0.16439523583827573 -0.9079619111710864
vn 0.8621882574564311 0.3677156117750299 -0.34844890236756126
vn 0.8621882574564314 0.3677156117750301 0.3484489023675607
vn 0.38545995161135216 0.1643952358382753 0.9079619111710866
vn -0.3854599516113518 -0.16439523583827562 0.9079619111710866
vn -0.8621882574564312 -0.3677156117750301 0.3484489023675609
vn -0.8621882574564316 -0.3677156117750306 -0.34844890236756004
vn -0.3854599516113517 -0.16439523583827512 -0.9079619111710867
vn 0.4401663429113795 1.9937745880822086e-16 -0.8979162491947799
vn 0.9438584549238589 7.335246701914748e-17 -0.3303501431341392
vn 0.9438584549238591 -7.335246701914728e-17 0.3303501431341383
vn 0.44016634291137924 -1.993774588082209e-16 0.8979162491947801
vn -0.4401663429113792 -1.9937745880822088e-16 0.89791624919478
vn -0.9438584549238587 -7.335246701914755e-17 0.3303501431341395
vn -0.9438584549238587 7.335246701914755e-17 -0.3303501431341395
vn -0.4401663429113795 1.9937745880822086e-16 -0.8979162491947799
vn 0.38545995161135216 -0.16439523583827545 -0.9079619111710866
vn 0.8621882574564315 -0.3677156117750301 -0.3484489023675609
vn 0.8621882574564316 -0.36771561177503037 0.3484489023675599
vn 0.3854599516113518 -0.16439523583827556 0.9079619111710866
vn -0.38545995161135205 0.16439523583827523 0.9079619111710867
vn -0.8621882574564312 0.36771561177502976 0.3484489023675612
vn -0.8621882574564312 0.3677156117750304 -0.34844890236756093
vn -0.38545995161135216 0.1643952358382757 -0.9079619111710865
vn 0.22772842976195062 -0.2913724403375351 -0.929108100970983
vn 0.5654998873348612 -0.7235419941005989 -0.3958495423733468
vn 0.5654998873348618 -0.7235419941005996 0.3958495423733447
vn 0.22772842976195018 -0.2913724403375352 0.929108100970983
vn -0.22772842976195024 0.29137244033753473 0.9291081009709831
vn -0.5654998873348617 0.7235419941005993 0.39584954237334563
vn -0.5654998873348623 0.7235419941005997 -0.39584954237334424
vn -0.22772842976195012 0.29137244033753507 -0.9291081009709831
vn 2.26087763081406e-16 -0.340482870139044 -0.9402507192987831
vn 5.459961529655286e-16 -0.9036965971284548 -0.4281733998492331
vn 2.8998500477393915e-16 -0.9036965971284557 0.4281733998492311
vn 1.3302740534297272e-16 -0.340482870139044 0.9402507192987831
vn -1.6159334239317674e-16 0.34048287013904394 0.9402507192987832
vn 0 0.9036965971284548 0.42817339984923297
vn -4.441351717959347e-16 0.9036965971284554 -0.42817339984923186
vn -1.3302740534297282e-16 0.3404828701390444 -0.9402507192987829
vn -0.2498931787779622 -0.2855714836986488 -0.9252039380041558
vn -0.6049337851894678 -0.6961468325679523 -0.3865678505022765
vn -0.6540538561718011 -0.6580273463096784 0.3731133403343272
vn -0.2277284297619499 -0.2913724403375353 0.9291081009709831
vn 0.22772842976195007 0.291372440337535 0.9291081009709831
vn 0.5654998873348609 0.7235419941005995 0.3958495423733465
vn 0.5654998873348613 0.7235419941005997 -0.3958495423733454
vn 0.22772842976195 0.29137244033753545 -0.9291081009709828
vn -0.2792032703876719 -0.33237699709095503 -0.9008723914126952
vn -0.653106995182953 -0.6478782838447913 -0.3920522696853344
vn -0.742398698600383 -0.4013059777066861 0.5364677852148613
vn -0.6742513892308668 -0.2875622115437134 0.6802154354411071
vn 0.38545995161135227 0.16439523583827506 0.9079619111710865
vn 0.8621882574564311 0.36771561177502987 0.3484489023675613
vn 0.8621882574564318 0.36771561177503 -0.3484489023675601
vn 0.38545995161135205 0.16439523583827542 -0.9079619111710865
vn 0.6332125818739919 -0.11422490364385939 -0.7655027743542309
vn 0.47956351642450745 -0.03857231484380715 0.8766590045406205
vn 0.4401663429113792 3.2099026535080554e-17 0.8979162491947802
vn 0.943858454923859 -7.335246701914727e-17 0.33035014313413824
vn 0.9438584549238591 7.335246701914728e-17 -0.3303501431341383
vn 0.44016634291137946 4.534532417754637e-16 -0.8979162491947799
vn -0.9532640134810176 0.3020517075852988 0.007244759959287397
vn 0.10703221742413815 -0.04564828733096492 0.9932070973855462
vn 0.4992736056680405 -0.2129357454866821 0.8398715586190932
vn 0.8621882574564316 -0.36771561177502965 0.34844890236756104
vn 0.8621882574564321 -0.3677156117750295 -0.34844890236755993
vn 0.38545995161135166 -0.16439523583827492 -0.9079619111710869
vn -0.3844208390188378 0.3867562620091949 -0.8382363701991987
vn -0.4868415749962874 0.6229007854342942 -0.6123560176567826
vn -0.5199566402313729 0.8529449762719096 0.04615148677793897
vn -0.16545896576918073 0.18508389125907024 0.9686935964705218
vn 0.2649840359148938 -0.33903999283585295 0.9026823051152155
vn 0.5654998873348617 -0.7235419941005997 0.39584954237334496
vn 0.5654998873348621 -0.7235419941005993 -0.3958495423733449
vn 0.2277284297619499 -0.29137244033753473 -0.9291081009709831
vn 0 0.34048287013904394 -0.9402507192987832
vn 0 0.9036965971284551 -0.4281733998492326
vn 0 0.9036965971284553 0.4281733998492323
vn 0 0.34048287013904327 0.9402507192987833
vn 0 -0.34048287013904444 0.940250719298783
vn 0 -0.9036965971284551 0.42817339984923264
vn 0 -0.9036965971284551 -0.428173399849233
vn 0 -0.34048287013904416 -0.940250719298783
vn -0.45667377880706317 0.44454282624045693 -0.7706041366280254
vn -0.9036966934896851 0.33763128974409673 0.2633199543550544
vn -0.993590039077272 0.08514608011903921 -0.07435710649821849
vn -0.9017244448576739 -0.051145189998299895 0.42927519738060577
usemtl m_696e87ff-7595-3da0-add8-e4ea5dbe44af
f 2/1/1 3/2/1 11/3/1 10/4/1
f 3/5/2 4/6/2 12/7/2 11/8/2
f 4/9/3 5/10/3 13/11/3 12/12/3
f 5/13/4 6/14/4 14/15/4 13/16/4
f 6/17/5 7/18/5 15/19/5 14/20/5
f 7/21/6 8/22/6 16/23/6 15/24/6
f 8/25/7 9/26/7 17/27/7 16/28/7
f 9/29/8 2/30/8 10/31/8 17/32/8
f 10/33/9 11/34/9 19/35/9 18/36/9
f 11/37/10 12/38/10 20/39/10 19/40/10
f 12/41/11 13/42/11 21/43/11 20/44/11
f 13/45/12 14/46/12 22/47/12 21/48/12
f 14/49/13 15/50/13 1/51/13 22/52/13
f 15/53/14 16/54/14 23/55/14 1/56/14
f 16/57/15 17/58/15 24/59/15 23/60/15
f 17/61/16 10/62/16 18/63/16 24/64/16
f 18/65/17 19/66/17 26/67/17 25/68/17
f 19/69/18 20/70/18 27/71/18 26/72/18
f 20/73/19 21/74/19 28/75/19 27/76/19
f 21/77/20 22/78/20 29/79/20 28/80/20
f 22/81/21 1/82/21 30/83/21 29/84/21
f 1/85/22 23/86/22 31/87/22 30/88/22
f 23/89/23 24/90/23 32/91/23 31/92/23
f 24/93/24 18/94/24 25/95/24 32/96/24
f 25/97/25 26/98/25 34/99/25 33/100/25
f 26/101/26 27/102/26 35/103/26 34/104/26
f 27/105/27 28/106/27 36/107/27 35/108/27
f 28/109/28 29/110/28 37/111/28 36/112/28
f 29/113/29 30/114/29 38/115/29 37/116/29
f 30/117/30 31/118/30 39/119/30 38/120/30
f 31/121/31 32/122/31 40/123/31 39/124/31
f 32/125/32 25/126/32 33/127/32 40/128/32
f 33/129/33 34/130/33 42/131/33 41/132/33
f 34/133/34 35/134/34 43/135/34 42/136/34
f 35/137/35 36/138/35 44/139/35 43/140/35
f 36/141/36 37/142/36 45/143/36 44/144/36
f 37/145/37 38/146/37 46/147/37 45/148/37
f 38/149/38 39/150/38 47/151/38 46/152/38
f 39/153/39 40/154/39 48/155/39 47/156/39
f 40/157/40 33/158/40 41/159/40 48/160/40
f 41/161/41 42/162/41 50/163/41 49/164/41
f 42/165/42 43/166/42 51/167/42 50/168/42
f 43/169/43 44/170/43 52/171/43 51/172/43
f 44/173/44 45/174/44 53/175/44 52/176/44
f 45/177/45 46/178/45 54/179/45 53/180/45
f 46/181/46 47/182/46 55/183/46 54/184/46
f 47/185/47 48/186/47 56/187/47 55/188/47
f 48/189/48 41/190/48 49/191/48 56/192/48
f 49/193/49 50/194/49 58/195/49 57/196/49
f 50/197/50 51/198/50 59/199/50 58/200/50
f 51/201/51 52/202/51 60/203/51 59/204/51
f 52/205/52 53/206/52 61/207/52 60/208/52
f 53/209/53 54/210/53 62/211/53 61/212/53
f 54/213/54 55/214/54 63/215/54 62/216/54
f 55/217/55 56/218/55 64/219/55 63/220/55
f 56/221/56 49/222/56 57/223/56 64/224/56
f 57/225/57 58/226/57 66/227/57 65/228/57
f 58/229/58 59/230/58 67/231/58 66/232/58
f 59/233/59 60/234/59 68/235/59 67/236/59
f 60/237/60 61/238/60 69/239/60 68/240/60
f 61/241/61 62/242/61 70/243/61 69/244/61
f 62/245/62 63/246/62 71/247/62 70/248/62
f 63/249/63 64/250/63 72/251/63 71/252/63
f 64/253/64 57/254/64 65/255/64 72/256/64
f 65/257/65 66/258/65 74/259/65 73/260/65
f 68/261/66 69/262/66 77/263/66 76/264/66
f 69/265/67 70/266/67 78/267/67 77/268/67
f 70/269/68 71/270/68 79/271/68 78/272/68
f 71/273/69 72/274/69 80/275/69 79/276/69
f 72/277/70 65/278/70 73/279/70 80/280/70
f 74/281/71 73/282/71 82/283/71 81/284/71
f 76/285/72 77/286/72 85/287/72 84/288/72
f 77/289/73 78/290/73 86/291/73 85/292/73
f 78/293/74 79/294/74 87/295/74 86/296/74
f 79/297/75 80/298/75 88/299/75 87/300/75
f 80/301/76 73/302/76 81/303/76 88/304/76
f 81/305/77 82/306/77 90/307/77 89/308/77
f 82/309/78 83/310/78 91/311/78 90/312/78
f 83/313/79 84/314/79 92/315/79 91/316/79
f 84/317/80 85/318/80 93/319/80 92/320/80
f 85/321/81 86/322/81 94/323/81 93/324/81
f 86/325/82 87/326/82 95/327/82 94/328/82
f 87/329/83 88/330/83 96/331/83 95/332/83
f 88/333/84 81/334/84 89/335/84 96/336/84
f 89/337/85 90/338/85 3/339/85 2/340/85
f 90/341/86 91/342/86 4/343/86 3/344/86
f 91/345/87 92/346/87 5/347/87 4/348/87
f 92/349/88 93/350/88 6/351/88 5/352/88
f 93/353/89 94/354/89 7/355/89 6/356/89
f 94/357/90 95/358/90 8/359/90 7/360/90
f 95/361/91 96/362/91 9/363/91 8/364/91
f 96/365/92 89/366/92 2/367/92 9/368/92
f 74/369/93 75/370/93 83/371/93 82/372/93
f 75/373/94 76/374/94 84/375/94 83/376/94
f 66/377/95 67/378/95 75/379/95 74/380/95
f 67/381/96 68/382/96 76/383/96 75/384/96