# Made in Blockbench 4.12.6
mtllib timer_bim.mtl

o Timer
v -18 0 18
v -18 0 -18
v 18 0 -18
v 18 0 18
v -12.8 39 2.2
v 12.8 39 2.2
v 12.8 39 -7.8
v -12.8 39 -7.8
v -18 2 20
v 18 2 20
v 18 38 20
v -18 38 20
v 20 2 18
v 20 2 -18
v 20 38 -18
v 20 38 18
v 18 2 -20
v -18 2 -20
v -18 38 -20
v 18 38 -20
v -20 2 -18
v -20 2 18
v -20 38 18
v -20 38 -18
v -18 40 18
v 18 40 18
v -18 40 -18
v 18 40 -18
v 14 40 3.4
v -14 40 3.4
v 14 40 -9
v -14 40 -9
vt 0.6962368743805748 0.46869013419253513
vt 0.6962368743805748 0.9612297325388027
vt 0.9765461595639247 0.9612297325388027
vt 0.9765461595639247 0.46869013419253513
vt 0.06282530859117838 0.6849588159166207
vt 0.2609746914088216 0.6849588159166207
vt 0.2609746914088216 0.8227943786812074
vt 0.06282530859117838 0.8227943786812074
vt 0.27052979638612334 0.0078125
vt 0.4999874999999999 0.0078125
vt 0.4999874999999999 0.43123437499999984
vt 0.27052979638612334 0.43123437499999984
vt 0.5180946401361234 0.0078125
vt 0.7475523437499999 0.0078125
vt 0.7475523437499999 0.43123437499999984
vt 0.5180946401361234 0.43123437499999984
vt 0.7656594838861234 0.0078125
vt 0.9951171875 0.0078125
vt 0.9951171875 0.43123437499999984
vt 0.7656594838861234 0.43123437499999984
vt 0.022964952636123363 0.0078125
vt 0.2524226562499999 0.0078125
vt 0.2524226562499999 0.43123437499999984
vt 0.022964952636123363 0.43123437499999984
vt 0.6962368743805748 0.44128750000000005
vt 0.6806984375 0.46869013419253513
vt 0.6962368743805748 0.46869013419253513
vt 0.9765461595639247 0.46869013419253513
vt 0.9921875 0.46869013419253513
vt 0.9765461595639247 0.44128750000000005
vt 0.6806984375 0.9612297325388027
vt 0.6962368743805748 0.9885312500000001
vt 0.6962368743805748 0.9612297325388027
vt 0.9765461595639247 0.9612297325388027
vt 0.9765461595639247 0.9885312500000001
vt 0.9921875 0.9612297325388027
vt 0.022563474119486504 0.43953437500000003
vt 0.022563474119486504 0.4671420871295785
vt 0.0070703125 0.4671420871295785
vt 0.3167296875 0.4671420871295785
vt 0.3012365258805135 0.4671420871295785
vt 0.3012365258805135 0.43953437500000003
vt 0.0070703125 0.9633704128704216
vt 0.022563474119486504 0.9633704128704216
vt 0.022563474119486504 0.990978125
vt 0.3012365258805135 0.990978125
vt 0.3012365258805135 0.9633704128704216
vt 0.3167296875 0.9633704128704216
vt 0.6962368743805748 0.46869013419253513
vt 0.6806984375 0.46869013419253513
vt 0.6806984375 0.9612297325388027
vt 0.6962368743805748 0.9612297325388027
vt 0.6962368743805748 0.9612297325388027
vt 0.6962368743805748 0.9885312500000001
vt 0.9765461595639247 0.9885312500000001
vt 0.9765461595639247 0.9612297325388027
vt 0.9765461595639247 0.9612297325388027
vt 0.9921875 0.9612297325388027
vt 0.9921875 0.46869013419253513
vt 0.9765461595639247 0.46869013419253513
vt 0.9765461595639247 0.46869013419253513
vt 0.9765461595639247 0.44128750000000005
vt 0.6962368743805748 0.44128750000000005
vt 0.6962368743805748 0.46869013419253513
vt 0.022563474119486504 0.4671420871295785
vt 0.022563474119486504 0.43953437500000003
vt 0.3012365258805135 0.43953437500000003
vt 0.3012365258805135 0.4671420871295785
vt 0.3012365258805135 0.4671420871295785
vt 0.3167296875 0.4671420871295785
vt 0.3167296875 0.9633704128704216
vt 0.3012365258805135 0.9633704128704216
vt 0.3012365258805135 0.9633704128704216
vt 0.3012365258805135 0.990978125
vt 0.022563474119486504 0.990978125
vt 0.022563474119486504 0.9633704128704216
vt 0.022563474119486504 0.9633704128704216
vt 0.0070703125 0.9633704128704216
vt 0.0070703125 0.4671420871295785
vt 0.022563474119486504 0.4671420871295785
vt 0.4999874999999999 0.0078125
vt 0.5180946401361234 0.0078125
vt 0.5180946401361234 0.43123437499999984
vt 0.4999874999999999 0.43123437499999984
vt 0.27052979638612334 0.43123437499999984
vt 0.2524226562499999 0.43123437499999984
vt 0.2524226562499999 0.0078125
vt 0.27052979638612334 0.0078125
vt 0.7475523437499999 0.0078125
vt 0.7656594838861234 0.0078125
vt 0.7656594838861234 0.43123437499999984
vt 0.7475523437499999 0.43123437499999984
vt 0.004857812499999836 0.0078125
vt 0.022964952636123363 0.0078125
vt 0.022964952636123363 0.43123437499999984
vt 0.004857812499999836 0.43123437499999984
vt 0.022563474119486504 0.4671420871295785
vt 0.3012365258805135 0.4671420871295785
vt 0.2702502026415405 0.6684144884272043
vt 0.05344786866359448 0.6684144884272043
vt 0.3012365258805135 0.4671420871295785
vt 0.3012365258805135 0.9633704128704216
vt 0.2702502026415405 0.839338706170624
vt 0.2702502026415405 0.6684144884272043
vt 0.3012365258805135 0.9633704128704216
vt 0.022563474119486504 0.9633704128704216
vt 0.05344786866359448 0.839338706170624
vt 0.2702502026415405 0.839338706170624
vt 0.022563474119486504 0.9633704128704216
vt 0.022563474119486504 0.4671420871295785
vt 0.05344786866359448 0.6684144884272043
vt 0.05344786866359448 0.839338706170624
vt 0.05344786866359448 0.6684144884272043
vt 0.2702502026415405 0.6684144884272043
vt 0.2609746914088216 0.6849588159166207
vt 0.06282530859117838 0.6849588159166207
vt 0.2702502026415405 0.6684144884272043
vt 0.2702502026415405 0.839338706170624
vt 0.2609746914088216 0.8227943786812074
vt 0.2609746914088216 0.6849588159166207
vt 0.2702502026415405 0.839338706170624
vt 0.05344786866359448 0.839338706170624
vt 0.06282530859117838 0.8227943786812074
vt 0.2609746914088216 0.8227943786812074
vt 0.05344786866359448 0.839338706170624
vt 0.05344786866359448 0.6684144884272043
vt 0.06282530859117838 0.6849588159166207
vt 0.06282530859117838 0.8227943786812074
vn 0 -1 0
vn 0 1 0
vn 0 0 1
vn 1 0 0
vn 0 0 -1
vn -1 0 0
vn -0.5773502691896258 -0.5773502691896258 0.5773502691896258
vn 0.5773502691896258 -0.5773502691896258 0.5773502691896258
vn -0.5773502691896258 -0.5773502691896258 -0.5773502691896258
vn 0.5773502691896258 -0.5773502691896258 -0.5773502691896258
vn -0.5773502691896258 0.5773502691896258 0.5773502691896258
vn 0.5773502691896258 0.5773502691896258 0.5773502691896258
vn -0.5773502691896258 0.5773502691896258 -0.5773502691896258
vn 0.5773502691896258 0.5773502691896258 -0.5773502691896258
vn -0.7071067811865476 -0.7071067811865476 0
vn 0 -0.7071067811865476 -0.7071067811865476
vn 0.7071067811865476 -0.7071067811865476 0
vn 0 -0.7071067811865476 0.7071067811865476
vn 0 0.7071067811865476 0.7071067811865476
vn 0.7071067811865476 0.7071067811865476 0
vn 0 0.7071067811865476 -0.7071067811865476
vn -0.7071067811865476 0.7071067811865476 0
vn 0.7071067811865476 0 0.7071067811865476
vn -0.7071067811865476 0 0.7071067811865476
vn 0.7071067811865476 0 -0.7071067811865476
vn -0.7071067811865476 0 -0.7071067811865476
vn 0 1 0
vn 0 1 0
vn 0 1 0
vn 0 1 0
vn 0 0.7682212795973757 -0.6401843996644799
vn -0.6401843996644802 0.7682212795973759 0
vn 0 0.768221279597376 0.6401843996644798
vn 0.6401843996644802 0.7682212795973759 0
usemtl m_f91c2e46-fbb9-4136-7188-498c72526409
f 1/1/1 2/2/1 3/3/1 4/4/1
f 5/5/2 6/6/2 7/7/2 8/8/2
f 9/9/3 10/10/3 11/11/3 12/12/3
f 13/13/4 14/14/4 15/15/4 16/16/4
f 17/17/5 18/18/5 19/19/5 20/20/5
f 21/21/6 22/22/6 23/23/6 24/24/6
f 9/25/7 22/26/7 1/27/7
f 4/28/8 13/29/8 10/30/8
f 21/31/9 18/32/9 2/33/9
f 3/34/10 17/35/10 14/36/10
f 12/37/11 25/38/11 23/39/11
f 16/40/12 26/41/12 11/42/12
f 24/43/13 27/44/13 19/45/13
f 20/46/14 28/47/14 15/48/14
f 1/49/15 22/50/15 21/51/15 2/52/15
f 2/53/16 18/54/16 17/55/16 3/56/16
f 3/57/17 14/58/17 13/59/17 4/60/17
f 4/61/18 10/62/18 9/63/18 1/64/18
f 25/65/19 12/66/19 11/67/19 26/68/19
f 26/69/20 16/70/20 15/71/20 28/72/20
f 28/73/21 20/74/21 19/75/21 27/76/21
f 27/77/22 24/78/22 23/79/22 25/80/22
f 10/81/23 13/82/23 16/83/23 11/84/23
f 12/85/24 23/86/24 22/87/24 9/88/24
f 14/89/25 17/90/25 20/91/25 15/92/25
f 18/93/26 21/94/26 24/95/26 19/96/26
f 25/97/27 26/98/27 29/99/27 30/100/27
f 26/101/28 28/102/28 31/103/28 29/104/28
f 28/105/29 27/106/29 32/107/29 31/108/29
f 27/109/30 25/110/30 30/111/30 32/112/30
f 30/113/31 29/114/31 6/115/31 5/116/31
f 29/117/32 31/118/32 7/119/32 6/120/32
f 31/121/33 32/122/33 8/123/33 7/124/33
f 32/125/34 30/126/34 5/127/34 8/128/34